<?xml version="1.0" encoding="utf-8"?>
<!-- Generator: Adobe Illustrator 19.1.1, SVG Export Plug-In . SVG Version: 6.00 Build 0)  -->
<svg version="1.1" id="图层_1" xmlns="http://www.w3.org/2000/svg" xmlns:xlink="http://www.w3.org/1999/xlink" x="0px" y="0px"
	 viewBox="-197 320.9 200 200" style="enable-background:new -197 320.9 200 200;" xml:space="preserve">
<style type="text/css">
	.st0{fill:#FFFFFF;stroke:#E95743;stroke-width:14;stroke-miterlimit:10;}
	.st1{fill:#FFFFFF;}
	.st2{fill:#E95743;}
	.st3{fill:#FFFFFF;stroke:#E95743;stroke-width:3;stroke-miterlimit:10;}
	.st4{fill:none;stroke:#E95743;stroke-width:3;stroke-miterlimit:10;}
</style>
<circle class="st0" cx="-97" cy="420.9" r="97.3"/>
<g>
	<g>
		<path class="st1" d="M-97,380.6c-9.6,0-17.4-7.8-17.4-17.4c0-9.6,7.8-17.4,17.4-17.4s17.4,7.8,17.4,17.4
			C-79.6,372.8-87.4,380.6-97,380.6z"/>
		<path class="st2" d="M-97,346.3c9.3,0,16.9,7.6,16.9,16.9c0,9.3-7.6,16.9-16.9,16.9s-16.9-7.6-16.9-16.9
			C-113.9,353.9-106.3,346.3-97,346.3 M-97,345.3c-9.9,0-17.9,8-17.9,17.9c0,9.9,8,17.9,17.9,17.9s17.9-8,17.9-17.9
			C-79.1,353.4-87.1,345.3-97,345.3L-97,345.3z"/>
	</g>
	<path class="st3" d="M-109.6,352.4c3,3.7,7.5,6.1,12.7,6.1c5.1,0,9.7-2.4,12.7-6.1"/>
	<path class="st3" d="M-84.2,374.1c-3-3.7-7.6-6.1-12.7-6.1c-5.2,0-9.7,2.4-12.7,6.1"/>
	<line class="st4" x1="-97" y1="346.7" x2="-97" y2="379.2"/>
	<line class="st4" x1="-113.9" y1="363.6" x2="-80.2" y2="363.6"/>
</g>
</svg>
