<?xml version="1.0" encoding="utf-8"?>
<!-- Generator: Adobe Illustrator 19.1.0, SVG Export Plug-In . SVG Version: 6.00 Build 0)  -->
<svg version="1.1" id="图层_1" xmlns="http://www.w3.org/2000/svg" xmlns:xlink="http://www.w3.org/1999/xlink" x="0px" y="0px"
	 viewBox="-9 -75 200 200" style="enable-background:new -9 -75 200 200;" xml:space="preserve">
<style type="text/css">
	.st8{fill:#FFFFFF;stroke:#E95743;stroke-width:5;stroke-miterlimit:10;}
	.st9{fill:#FFFFFF;}
	.st10{fill:#E95743;}
	.st11{fill:#FFFFFF;stroke:#E95743;stroke-width:3;stroke-miterlimit:10;}
	.st12{fill:none;stroke:#E95743;stroke-width:3;stroke-miterlimit:10;}
</style>
<circle class="st8" cx="91" cy="24.5" r="97.3"/>
<g>
	<g>
		<path class="st9" d="M91-15.8c-9.6,0-17.4-7.8-17.4-17.4S81.4-50.6,91-50.6s17.4,7.8,17.4,17.4S100.6-15.8,91-15.8z"/>
		<path class="st10" d="M91-50.1c9.3,0,16.9,7.6,16.9,16.9S100.3-16.3,91-16.3s-16.9-7.6-16.9-16.9S81.7-50.1,91-50.1 M91-51.1
			c-9.9,0-17.9,8-17.9,17.9s8,17.9,17.9,17.9s17.9-8,17.9-17.9C108.9-43,100.9-51.1,91-51.1L91-51.1z"/>
	</g>
	<path class="st11" d="M78.4-44c3,3.7,7.5,6.1,12.7,6.1c5.1,0,9.7-2.4,12.7-6.1"/>
	<path class="st11" d="M103.8-22.3c-3-3.7-7.6-6.1-12.7-6.1c-5.2,0-9.7,2.4-12.7,6.1"/>
	<line class="st12" x1="91" y1="-49.7" x2="91" y2="-17.2"/>
	<line class="st12" x1="74.1" y1="-32.8" x2="107.8" y2="-32.8"/>
</g>
</svg>
