<?xml version="1.0" encoding="utf-8"?>
<!-- Generator: Adobe Illustrator 19.1.1, SVG Export Plug-In . SVG Version: 6.00 Build 0)  -->
<svg version="1.1" id="图层_1" xmlns="http://www.w3.org/2000/svg" xmlns:xlink="http://www.w3.org/1999/xlink" x="0px" y="0px"
	 viewBox="-197 320.9 200 200" style="enable-background:new -197 320.9 200 200;" xml:space="preserve">
<style type="text/css">
	.st0{fill:#FFFFFF;stroke:#E95743;stroke-width:14;stroke-miterlimit:10;}
	.st1{fill:#FFFFFF;stroke:#E95743;stroke-width:3;stroke-miterlimit:10;}
</style>
<circle class="st0" cx="-96.9" cy="420.8" r="97.5"/>
<g>
	<g>
		<path class="st1" d="M-85.2,353.4c0,3.2-5.7,5.8-11.9,5.8s-11.2-2.6-11.2-5.8c0-3.2,5-5.8,11.2-5.8S-85.2,350.2-85.2,353.4z"/>
		<path class="st1" d="M-85,363c6.3,1.9,10.5,5.3,10.5,9.1c0,5.9-10.1,10.7-22.5,10.7s-22.5-4.8-22.5-10.7c0-3.8,5.1-7.1,11.3-9"/>
		<path class="st1" d="M-85.2,354.2v14.4c0,3.2-4.7,5.4-11.5,5.4s-11.5-3-11.5-6.2v-13.6"/>
	</g>
	<path class="st1" d="M-85,354.4c0.5-0.1,0.9-0.2,1.4-0.2c3,0,5.4,2.4,5.4,5.4s-2.4,5.4-5.4,5.4c-0.8,0-1.5-0.2-2.1-0.4"/>
</g>
</svg>
