<?xml version="1.0" encoding="utf-8"?>
<!-- Generator: Adobe Illustrator 19.1.0, SVG Export Plug-In . SVG Version: 6.00 Build 0)  -->
<svg version="1.1" id="图层_1" xmlns="http://www.w3.org/2000/svg" xmlns:xlink="http://www.w3.org/1999/xlink" x="0px" y="0px"
	 viewBox="-9 -75 200 200" style="enable-background:new -9 -75 200 200;" xml:space="preserve">
<style type="text/css">
	.st8{fill:#FFFFFF;stroke:#E95743;stroke-width:5;stroke-miterlimit:10;}
	.st9{fill:#FFFFFF;stroke:#E95743;stroke-width:3;stroke-miterlimit:10;}
</style>
<circle class="st8" cx="91.1" cy="24.9" r="96.3"/>
<g>
	<polyline class="st9" points="79.5,-32.6 79.5,-12.3 108.5,-12.3 108.5,-32.6 	"/>
	<polyline class="st9" points="83,-32.6 83,-18.1 105,-18.1 105,-32.6 	"/>
	<path class="st9" d="M79.6-32.2c1.6,0,3-1.3,3-2.9c0,1.6,1.3,2.9,2.9,2.9s2.9-1.3,2.9-2.9c0,1.6,1.3,2.9,2.9,2.9s2.9-1.3,2.9-2.9
		c0,1.6,1.3,2.9,2.9,2.9s2.9-1.3,2.9-2.9c0,1.6,1.3,2.9,2.9,2.9s2.9-1.3,2.9-2.9c0,1.6,0.9,2.9,2.5,2.9s2.5-1.3,2.5-2.9v-0.7
		l-3.5-10.1H81.2l-4,10.1v0.8C77.2-33.4,78.4-32.2,79.6-32.2z"/>
</g>
</svg>
