<?xml version="1.0" encoding="utf-8"?>
<!-- Generator: Adobe Illustrator 19.1.1, SVG Export Plug-In . SVG Version: 6.00 Build 0)  -->
<svg version="1.1" id="图层_1" xmlns="http://www.w3.org/2000/svg" xmlns:xlink="http://www.w3.org/1999/xlink" x="0px" y="0px"
	 viewBox="-197 320.9 200 200" style="enable-background:new -197 320.9 200 200;" xml:space="preserve">
<style type="text/css">
	.st0{fill:#FFFFFF;stroke:#E95743;stroke-width:14;stroke-miterlimit:10;}
	.st1{fill:#FFFFFF;stroke:#E95743;stroke-width:3;stroke-miterlimit:10;}
</style>
<circle class="st0" cx="-97" cy="420.9" r="96.3"/>
<g>
	<polyline class="st1" points="-108.6,363.4 -108.6,383.7 -79.6,383.7 -79.6,363.4 	"/>
	<polyline class="st1" points="-105.1,363.4 -105.1,377.9 -83.1,377.9 -83.1,363.4 	"/>
	<path class="st1" d="M-108.5,363.8c1.6,0,3-1.3,3-2.9c0,1.6,1.3,2.9,2.9,2.9c1.6,0,2.9-1.3,2.9-2.9c0,1.6,1.3,2.9,2.9,2.9
		c1.6,0,2.9-1.3,2.9-2.9c0,1.6,1.3,2.9,2.9,2.9c1.6,0,2.9-1.3,2.9-2.9c0,1.6,1.3,2.9,2.9,2.9c1.6,0,2.9-1.3,2.9-2.9
		c0,1.6,0.9,2.9,2.5,2.9c1.6,0,2.5-1.3,2.5-2.9v-0.7l-3.5-10.1h-26.1l-4,10.1v0.8C-110.9,362.6-109.7,363.8-108.5,363.8z"/>
</g>
</svg>
