<?xml version="1.0" encoding="utf-8"?>
<!-- Generator: Adobe Illustrator 19.1.0, SVG Export Plug-In . SVG Version: 6.00 Build 0)  -->
<svg version="1.1" id="图层_1" xmlns="http://www.w3.org/2000/svg" xmlns:xlink="http://www.w3.org/1999/xlink" x="0px" y="0px"
	 viewBox="0 0 200 200" style="enable-background:new 0 0 200 200;" xml:space="preserve">
<style type="text/css">
	.st8{fill:#FFFFFF;stroke:#E95743;stroke-width:5;stroke-miterlimit:10;}
	.st9{fill:#FFFFFF;stroke:#E95743;stroke-width:3;stroke-miterlimit:10;}
</style>
<circle class="st8" cx="100" cy="99.9" r="97.7"/>
<g>
	<path class="st9" d="M115.8,39.1c0,0,0,5,0,6.7c0,1.7-6.2,10.3-13,10.3s-13-8.6-13-10.3c0-1.7,0-6.7,0-6.7"/>
	<path class="st9" d="M121,65.5c0-6.8-3.4-12-7.8-12h-3.6"/>
	<path class="st9" d="M84.9,65.5c0-6.8,3.3-12,7.5-12H96"/>
	<path class="st9" d="M115.1,33.8c0-1-0.8-2.6-3.4-3.7c0.1-0.5,0.4-1.4,1.7-1.4c-1.3-1.3-3.6-0.6-4.6,0.5c-1.5-0.3-3.4-0.5-5.7-0.5
		c-9.6,0-12,3.4-12,5.1c0,1.7-3.4,3.4,1.7,8.6c1.7,0,12-1.7,13.7-6.8c0,1.7,3.4,5.1,6.8,5.1C118.5,39,115.1,35.5,115.1,33.8z"/>
	<rect x="106.2" y="41.2" class="st9" width="6.8" height="5.5"/>
	<polyline class="st9" points="98.7,41.2 100.8,41.2 100.8,46.7 93.9,46.7 93.9,43.2 	"/>
	<line class="st9" x1="101.4" y1="43.9" x2="105.5" y2="43.9"/>
</g>
</svg>
