<?xml version="1.0" encoding="utf-8"?>
<!-- Generator: Adobe Illustrator 19.0.0, SVG Export Plug-In . SVG Version: 6.00 Build 0)  -->
<svg version="1.1" id="图层_1" xmlns="http://www.w3.org/2000/svg" xmlns:xlink="http://www.w3.org/1999/xlink" x="0px" y="0px"
	 viewBox="0 0 200 65" style="enable-background:new 0 0 200 65;" xml:space="preserve">
<style type="text/css">
	.st0{fill:#E95743;}
</style>
<g>
	<path id="XMLID_13_" class="st0" d="M39.5,0c-2.8,0-4.5,3-3.1,5.4c1.1,1.8,2.3,3.6,3.5,4.9c1.4,1.6,2.2,3,2.5,4.5
		c1.3,5.9-3.1,11.7-9.1,12.1c-5.9,0.4-10.8-3.8-10.8-9.7c0-2.7,0.6-4.5,2.8-6.9c1.2-1.4,2.4-3.1,3.5-4.9C30,3,28.3,0,25.5,0L2.9,0
		C1.3,0,0,1.3,0,2.9V62c0,1.6,1.3,3,3,3l22.5,0c2.8,0,4.6-3.1,3.1-5.5c-1.1-1.8-2.2-3.5-3.4-4.9c-1.4-1.6-2.2-3-2.5-4.5
		c-1.3-5.9,3.1-11.7,9.1-12.1c5.9-0.4,10.8,3.8,10.8,9.7c0,2.7-0.6,4.5-2.8,6.9c-1.2,1.4-2.4,3.2-3.5,5C35,62,36.7,65,39.4,65
		l22.6,0c1.6,0,2.9-1.3,2.9-2.9V3c0-1.7-1.4-3-3-3L39.5,0z"/>
	<g>
		<path class="st0" d="M88.6,22.3v6.5c0.6-0.4,1.2-0.7,1.8-0.9c0.7-0.2,1.4-0.2,2.1-0.2c0.8,0,1.5,0.1,2.1,0.3
			c0.6,0.2,1.2,0.5,1.6,0.9c0.5,0.4,0.8,0.9,1.1,1.4c0.3,0.5,0.4,1.1,0.4,1.7v10.3h-3.3v-9.9c0-0.5-0.1-0.8-0.2-1.2
			c-0.1-0.3-0.3-0.6-0.5-0.8c-0.2-0.2-0.5-0.3-0.8-0.4c-0.3-0.1-0.6-0.1-0.9-0.1c-0.4,0-0.8,0.1-1.2,0.3c-0.4,0.2-0.8,0.5-1.1,0.8
			c-0.3,0.3-0.6,0.7-0.8,1.2c-0.2,0.4-0.3,0.9-0.3,1.5v8.7h-3.3v-20H88.6z"/>
		<path class="st0" d="M103.3,35.8c0,0.6,0.1,1.2,0.3,1.7c0.2,0.6,0.5,1,0.8,1.5c0.3,0.4,0.7,0.8,1.1,1c0.4,0.3,0.9,0.4,1.4,0.4
			c1.7,0,2.8-0.9,3.5-2.8h3.1c-0.2,0.8-0.5,1.5-0.9,2.2c-0.4,0.6-0.9,1.2-1.5,1.6s-1.2,0.8-2,1c-0.7,0.2-1.5,0.3-2.2,0.3
			c-1.1,0-2.1-0.2-2.9-0.6c-0.9-0.4-1.6-1-2.2-1.7c-0.6-0.7-1.1-1.5-1.4-2.5c-0.3-0.9-0.5-1.9-0.5-3c0-1,0.2-1.9,0.5-2.8
			c0.3-0.9,0.8-1.7,1.4-2.3c0.6-0.7,1.3-1.2,2.2-1.6c0.9-0.4,1.8-0.6,2.9-0.6c1,0,2,0.2,2.8,0.5c0.8,0.4,1.6,0.8,2.1,1.5
			c0.6,0.6,1,1.4,1.4,2.2c0.3,0.9,0.5,1.8,0.5,2.8v1H103.3z M110.4,33.7c0-0.5-0.1-1-0.3-1.5c-0.2-0.5-0.4-0.8-0.7-1.2
			c-0.3-0.3-0.7-0.6-1.1-0.8c-0.4-0.2-0.9-0.3-1.4-0.3c-0.5,0-0.9,0.1-1.3,0.3c-0.4,0.2-0.8,0.5-1.1,0.8c-0.3,0.3-0.6,0.7-0.7,1.2
			c-0.2,0.4-0.3,0.9-0.3,1.4H110.4z"/>
		<path class="st0" d="M115.9,27.9h3l0.2,1.3c0.4-0.5,0.8-0.9,1.4-1.2c0.5-0.3,1.1-0.4,1.7-0.4c0.2,0,0.4,0,0.7,0.1
			c0.3,0.1,0.6,0.1,0.9,0.2v2.7c-0.9-0.3-1.5-0.5-1.6-0.5c-0.4,0-0.8,0.1-1.2,0.3c-0.4,0.2-0.7,0.4-0.9,0.8
			c-0.2,0.3-0.4,0.7-0.6,1.1c-0.1,0.4-0.2,0.9-0.2,1.3v8.7h-3.3V27.9z"/>
		<path class="st0" d="M128.6,35.8c0,0.6,0.1,1.2,0.3,1.7c0.2,0.6,0.5,1,0.8,1.5c0.3,0.4,0.7,0.8,1.1,1c0.4,0.3,0.9,0.4,1.4,0.4
			c1.7,0,2.8-0.9,3.5-2.8h3.1c-0.2,0.8-0.5,1.5-0.9,2.2c-0.4,0.6-0.9,1.2-1.5,1.6s-1.2,0.8-2,1c-0.7,0.2-1.5,0.3-2.2,0.3
			c-1.1,0-2.1-0.2-2.9-0.6c-0.9-0.4-1.6-1-2.2-1.7c-0.6-0.7-1.1-1.5-1.4-2.5c-0.3-0.9-0.5-1.9-0.5-3c0-1,0.2-1.9,0.5-2.8
			c0.3-0.9,0.8-1.7,1.4-2.3c0.6-0.7,1.3-1.2,2.2-1.6c0.9-0.4,1.8-0.6,2.9-0.6c1,0,2,0.2,2.8,0.5c0.8,0.4,1.6,0.8,2.1,1.5
			c0.6,0.6,1,1.4,1.4,2.2c0.3,0.9,0.5,1.8,0.5,2.8v1H128.6z M135.7,33.7c0-0.5-0.1-1-0.3-1.5c-0.2-0.5-0.4-0.8-0.7-1.2
			c-0.3-0.3-0.7-0.6-1.1-0.8c-0.4-0.2-0.9-0.3-1.4-0.3c-0.5,0-0.9,0.1-1.3,0.3c-0.4,0.2-0.8,0.5-1.1,0.8c-0.3,0.3-0.6,0.7-0.7,1.2
			c-0.2,0.4-0.3,0.9-0.3,1.4H135.7z"/>
		<path class="st0" d="M144.6,37.6c0,0.5,0.1,0.9,0.2,1.3c0.1,0.4,0.3,0.6,0.6,0.9c0.2,0.2,0.5,0.4,0.8,0.5c0.3,0.1,0.7,0.2,1,0.2
			c0.3,0,0.6,0,1-0.1c0.3-0.1,0.6-0.2,0.9-0.3s0.5-0.3,0.7-0.6c0.2-0.3,0.3-0.6,0.3-1c0-0.3-0.1-0.6-0.3-0.9
			c-0.2-0.2-0.4-0.5-0.7-0.6c-0.3-0.2-0.6-0.3-1-0.5c-0.4-0.1-0.8-0.3-1.2-0.4c-0.6-0.2-1.2-0.4-1.9-0.7c-0.6-0.2-1.2-0.5-1.7-0.9
			c-0.5-0.3-0.9-0.7-1.2-1.2c-0.3-0.5-0.5-1-0.5-1.7c0-0.7,0.2-1.2,0.5-1.7c0.3-0.5,0.7-0.9,1.2-1.2c0.5-0.3,1.1-0.6,1.8-0.7
			c0.7-0.2,1.4-0.2,2.1-0.2c0.8,0,1.6,0.1,2.2,0.3c0.7,0.2,1.3,0.4,1.8,0.8c0.5,0.3,0.9,0.8,1.2,1.3c0.3,0.5,0.5,1.2,0.5,1.9
			c0,0-0.1,0-0.2,0c-0.1,0-0.2,0-0.4,0c-0.1,0-0.3,0-0.4,0c-0.1,0-0.2,0-0.3,0h-2.1c-0.1-0.4-0.2-0.7-0.3-1
			c-0.1-0.3-0.3-0.5-0.6-0.6c-0.2-0.2-0.5-0.3-0.7-0.3c-0.3-0.1-0.6-0.1-0.9-0.1c-0.7,0-1.2,0.1-1.6,0.4c-0.4,0.3-0.6,0.7-0.6,1.2
			c0,0.3,0.1,0.6,0.3,0.8c0.2,0.2,0.4,0.4,0.7,0.6c0.3,0.2,0.6,0.4,1,0.5c0.4,0.1,0.8,0.3,1.2,0.4c0.6,0.2,1.2,0.5,1.8,0.7
			c0.6,0.2,1.2,0.5,1.7,0.9c0.5,0.3,0.9,0.7,1.2,1.1c0.3,0.4,0.5,0.9,0.5,1.5c0,0.8-0.2,1.5-0.5,2.1c-0.3,0.6-0.8,1-1.4,1.4
			c-0.6,0.4-1.2,0.6-2,0.8s-1.5,0.3-2.4,0.3c-0.8,0-1.6-0.1-2.3-0.3s-1.3-0.5-1.9-1c-0.5-0.4-1-1-1.3-1.6c-0.3-0.6-0.5-1.4-0.5-2.2
			H144.6z"/>
		<path class="st0" d="M158.9,35.8c0,0.6,0.1,1.2,0.3,1.7s0.5,1,0.8,1.5c0.3,0.4,0.7,0.8,1.1,1c0.4,0.3,0.9,0.4,1.4,0.4
			c1.7,0,2.8-0.9,3.5-2.8h3.1c-0.2,0.8-0.5,1.5-0.9,2.2c-0.4,0.6-0.9,1.2-1.5,1.6s-1.2,0.8-2,1c-0.7,0.2-1.5,0.3-2.2,0.3
			c-1.1,0-2.1-0.2-2.9-0.6c-0.9-0.4-1.6-1-2.2-1.7c-0.6-0.7-1.1-1.5-1.4-2.5c-0.3-0.9-0.5-1.9-0.5-3c0-1,0.2-1.9,0.5-2.8
			c0.3-0.9,0.8-1.7,1.4-2.3c0.6-0.7,1.3-1.2,2.2-1.6c0.9-0.4,1.8-0.6,2.9-0.6c1,0,2,0.2,2.8,0.5c0.8,0.4,1.6,0.8,2.1,1.5
			c0.6,0.6,1,1.4,1.4,2.2c0.3,0.9,0.5,1.8,0.5,2.8v1H158.9z M165.9,33.7c0-0.5-0.1-1-0.3-1.5c-0.2-0.5-0.4-0.8-0.7-1.2
			c-0.3-0.3-0.7-0.6-1.1-0.8c-0.4-0.2-0.9-0.3-1.4-0.3c-0.5,0-0.9,0.1-1.3,0.3c-0.4,0.2-0.8,0.5-1.1,0.8c-0.3,0.3-0.6,0.7-0.7,1.2
			c-0.2,0.4-0.3,0.9-0.3,1.4H165.9z"/>
		<path class="st0" d="M171.8,32.1c0-0.8,0.3-1.4,0.6-2c0.4-0.6,0.9-1,1.4-1.4c0.6-0.4,1.2-0.6,1.9-0.8c0.7-0.2,1.4-0.3,2.1-0.3
			c0.8,0,1.5,0.1,2.2,0.2s1.4,0.4,1.9,0.8c0.6,0.3,1,0.8,1.3,1.4c0.3,0.6,0.5,1.2,0.5,2v7.4c0,0.2,0,0.5,0.1,0.7
			c0.1,0.2,0.2,0.3,0.3,0.3c0.1,0,0.5-0.1,1.3-0.4v2.3c-0.5,0.1-0.8,0.2-1.1,0.3c-0.3,0.1-0.6,0.1-0.9,0.1c-0.6,0-1.1-0.1-1.6-0.4
			c-0.4-0.3-0.8-0.7-1-1.3c-0.4,0.4-0.8,0.7-1.2,0.9c-0.4,0.2-0.8,0.4-1.2,0.5c-0.4,0.1-0.8,0.2-1.2,0.3c-0.4,0-0.8,0.1-1.3,0.1
			c-0.7,0-1.3-0.1-1.9-0.3c-0.6-0.2-1.1-0.5-1.5-0.8c-0.4-0.3-0.8-0.8-1-1.3c-0.2-0.5-0.4-1.1-0.4-1.7c0-0.7,0.1-1.2,0.4-1.7
			c0.3-0.5,0.6-0.8,1-1.2c0.4-0.3,0.9-0.6,1.5-0.8c0.5-0.2,1.1-0.4,1.7-0.5c0.6-0.2,1.1-0.3,1.7-0.4c0.5-0.1,1-0.3,1.5-0.4
			c0.4-0.2,0.8-0.4,1-0.6c0.3-0.2,0.4-0.5,0.4-0.9c0-0.7-0.2-1.3-0.7-1.6c-0.5-0.3-1.2-0.5-2-0.5c-0.3,0-0.7,0-1,0.1
			c-0.3,0.1-0.6,0.2-0.8,0.4c-0.2,0.2-0.4,0.4-0.6,0.7c-0.2,0.3-0.3,0.6-0.3,1H171.8z M180.7,35.1c-0.3,0.2-0.6,0.3-1,0.4
			c-0.4,0.1-0.8,0.2-1.2,0.4c-0.4,0.1-0.9,0.3-1.3,0.4c-0.4,0.1-0.8,0.3-1.2,0.5s-0.6,0.4-0.8,0.7c-0.2,0.3-0.3,0.6-0.3,1
			c0,0.3,0.1,0.6,0.2,0.9c0.1,0.2,0.2,0.4,0.4,0.6c0.2,0.1,0.4,0.2,0.6,0.3c0.2,0.1,0.4,0.1,0.6,0.1c0.7,0,1.5-0.2,2.2-0.7
			c0.7-0.5,1.4-1.2,1.9-2.2V35.1z"/>
		<path class="st0" d="M191.2,37.6c0,0.5,0.1,0.9,0.2,1.3c0.1,0.4,0.3,0.6,0.6,0.9c0.2,0.2,0.5,0.4,0.8,0.5c0.3,0.1,0.7,0.2,1,0.2
			c0.3,0,0.6,0,1-0.1c0.3-0.1,0.6-0.2,0.9-0.3c0.3-0.1,0.5-0.3,0.7-0.6c0.2-0.3,0.3-0.6,0.3-1c0-0.3-0.1-0.6-0.3-0.9
			c-0.2-0.2-0.4-0.5-0.7-0.6c-0.3-0.2-0.6-0.3-1-0.5c-0.4-0.1-0.8-0.3-1.2-0.4c-0.6-0.2-1.2-0.4-1.9-0.7c-0.6-0.2-1.2-0.5-1.7-0.9
			c-0.5-0.3-0.9-0.7-1.2-1.2s-0.5-1-0.5-1.7c0-0.7,0.2-1.2,0.5-1.7c0.3-0.5,0.7-0.9,1.2-1.2c0.5-0.3,1.1-0.6,1.8-0.7
			c0.7-0.2,1.4-0.2,2.1-0.2c0.8,0,1.6,0.1,2.2,0.3c0.7,0.2,1.3,0.4,1.8,0.8c0.5,0.3,0.9,0.8,1.2,1.3c0.3,0.5,0.5,1.2,0.5,1.9
			c0,0-0.1,0-0.2,0c-0.1,0-0.2,0-0.4,0c-0.1,0-0.3,0-0.4,0c-0.1,0-0.2,0-0.3,0h-2.1c-0.1-0.4-0.2-0.7-0.3-1
			c-0.1-0.3-0.3-0.5-0.6-0.6c-0.2-0.2-0.5-0.3-0.7-0.3c-0.3-0.1-0.6-0.1-0.9-0.1c-0.7,0-1.2,0.1-1.6,0.4c-0.4,0.3-0.6,0.7-0.6,1.2
			c0,0.3,0.1,0.6,0.3,0.8c0.2,0.2,0.4,0.4,0.7,0.6c0.3,0.2,0.6,0.4,1,0.5c0.4,0.1,0.8,0.3,1.2,0.4c0.6,0.2,1.2,0.5,1.8,0.7
			c0.6,0.2,1.2,0.5,1.7,0.9c0.5,0.3,0.9,0.7,1.2,1.1c0.3,0.4,0.5,0.9,0.5,1.5c0,0.8-0.2,1.5-0.5,2.1c-0.3,0.6-0.8,1-1.4,1.4
			c-0.6,0.4-1.2,0.6-2,0.8s-1.5,0.3-2.4,0.3c-0.8,0-1.6-0.1-2.3-0.3s-1.3-0.5-1.9-1c-0.5-0.4-1-1-1.3-1.6c-0.3-0.6-0.5-1.4-0.5-2.2
			H191.2z"/>
	</g>
</g>
</svg>
