<?xml version="1.0" encoding="utf-8"?>
<!-- Generator: Adobe Illustrator 19.1.0, SVG Export Plug-In . SVG Version: 6.00 Build 0)  -->
<svg version="1.1" id="图层_1" xmlns="http://www.w3.org/2000/svg" xmlns:xlink="http://www.w3.org/1999/xlink" x="0px" y="0px"
	 viewBox="0 0 1366 488" style="enable-background:new 0 0 1366 488;" xml:space="preserve">
<style type="text/css">
	.st7{opacity:0.15;fill:#BBBAB7;}
</style>
<g>
	<path class="st7" d="M465.1,108.2c-1.9,0-3.1,2.1-2.1,3.7c0.7,1.2,1.5,2.4,2.4,3.3c1,1.1,1.5,2,1.7,3c0.9,4-2.1,8-6.2,8.2
		c-4,0.3-7.4-2.6-7.4-6.6c0-1.8,0.4-3.1,1.9-4.7c0.8-0.9,1.6-2.1,2.4-3.4c1-1.6-0.2-3.7-2.1-3.7l-15.4,0c-1.1,0-2,0.9-2,2v40.2
		c0,1.1,0.9,2,2,2l15.3,0c1.9,0,3.1-2.1,2.1-3.7c-0.7-1.2-1.5-2.4-2.3-3.3c-1-1.1-1.5-2-1.7-3c-0.9-4,2.1-8,6.2-8.2
		c4-0.3,7.4,2.6,7.4,6.6c0,1.8-0.4,3.1-1.9,4.7c-0.8,0.9-1.6,2.1-2.4,3.4c-1,1.6,0.2,3.7,2.1,3.7l15.4,0c1.1,0,2-0.9,2-2v-40.2
		c0-1.1-0.9-2.1-2.1-2.1L465.1,108.2z"/>
	<path class="st7" d="M237.1,190.7c-1.9,0-3.1,2.1-2.1,3.7c0.7,1.2,1.5,2.4,2.4,3.3c1,1.1,1.5,2,1.7,3c0.9,4-2.1,8-6.2,8.2
		c-4,0.3-7.4-2.6-7.4-6.6c0-1.8,0.4-3.1,1.9-4.7c0.8-0.9,1.6-2.1,2.4-3.4c1-1.6-0.2-3.7-2.1-3.7l-15.4,0c-1.1,0-2,0.9-2,2v40.2
		c0,1.1,0.9,2,2,2l15.3,0c1.9,0,3.1-2.1,2.1-3.7c-0.7-1.2-1.5-2.4-2.3-3.3c-1-1.1-1.5-2-1.7-3c-0.9-4,2.1-8,6.2-8.2
		c4-0.3,7.4,2.6,7.4,6.6c0,1.8-0.4,3.1-1.9,4.7c-0.8,0.9-1.6,2.1-2.4,3.4c-1,1.6,0.2,3.7,2.1,3.7l15.4,0c1.1,0,2-0.9,2-2v-40.2
		c0-1.1-0.9-2.1-2.1-2.1L237.1,190.7z"/>
	<path class="st7" d="M260.6,123.3c-1.5-1.1-3.7-0.1-3.9,1.8c-0.1,1.4-0.2,2.9,0,4.1c0.1,1.5,0,2.5-0.4,3.5
		c-1.6,3.8-6.4,5.2-9.9,3.1c-3.4-2.1-4.5-6.4-2.1-9.6c1.1-1.5,2.1-2.2,4.3-2.7c1.2-0.3,2.6-0.8,3.9-1.3c1.7-0.8,2-3.1,0.5-4.2
		l-12.5-9c-0.9-0.6-2.1-0.4-2.8,0.5l-23.5,32.6c-0.7,0.9-0.4,2.2,0.5,2.8l12.4,8.9c1.6,1.1,3.7,0.1,3.9-1.8c0.1-1.4,0.2-2.8,0-4.1
		c-0.1-1.5,0-2.5,0.4-3.5c1.6-3.8,6.4-5.2,9.9-3.1c3.4,2.1,4.5,6.4,2.1,9.6c-1.1,1.5-2.1,2.2-4.3,2.7c-1.2,0.3-2.6,0.8-3.9,1.4
		c-1.7,0.8-2,3.1-0.5,4.2l12.5,9c0.9,0.6,2.1,0.4,2.8-0.4l23.5-32.6c0.7-0.9,0.5-2.2-0.5-2.9L260.6,123.3z"/>
	<path class="st7" d="M370.5,233.6c-1.5-1.1-3.7-0.1-3.9,1.8c-0.1,1.4-0.2,2.9,0,4.1c0.1,1.5,0,2.5-0.4,3.5
		c-1.6,3.8-6.4,5.2-9.9,3.1c-3.4-2.1-4.5-6.4-2.1-9.6c1.1-1.5,2.1-2.2,4.3-2.7c1.2-0.3,2.6-0.8,3.9-1.3c1.7-0.8,2-3.1,0.5-4.2
		l-12.5-9c-0.9-0.6-2.1-0.4-2.8,0.5l-23.5,32.6c-0.7,0.9-0.4,2.2,0.5,2.8l12.4,8.9c1.6,1.1,3.7,0.1,3.9-1.8c0.1-1.4,0.2-2.8,0-4.1
		c-0.1-1.5,0-2.5,0.4-3.5c1.6-3.8,6.4-5.2,9.9-3.1c3.4,2.1,4.5,6.4,2.1,9.6c-1.1,1.5-2.1,2.2-4.3,2.7c-1.2,0.3-2.6,0.8-3.9,1.4
		c-1.7,0.8-2,3.1-0.5,4.2l12.5,9c0.9,0.6,2.1,0.4,2.8-0.4l23.5-32.6c0.7-0.9,0.5-2.2-0.5-2.9L370.5,233.6z"/>
	<path class="st7" d="M303.9,181.9c-1-0.4-2.1,0.4-2,1.5c0.1,0.8,0.3,1.7,0.5,2.3c0.3,0.8,0.4,1.4,0.2,2c-0.4,2.4-3,3.9-5.2,3.1
		c-2.2-0.8-3.4-3.1-2.5-5.2c0.4-1,0.9-1.6,2.1-2.1c0.7-0.3,1.4-0.8,2-1.3c0.9-0.7,0.7-2.1-0.3-2.5l-8.4-3.5c-0.6-0.2-1.3,0-1.5,0.6
		l-9,21.8c-0.3,0.6,0,1.3,0.6,1.6l8.3,3.4c1,0.4,2.2-0.4,2-1.6c-0.1-0.8-0.3-1.6-0.5-2.3c-0.3-0.8-0.4-1.4-0.2-2
		c0.4-2.4,3-3.9,5.2-3.1c2.2,0.8,3.4,3.1,2.5,5.2c-0.4,1-0.9,1.6-2.1,2.1c-0.7,0.3-1.4,0.8-2,1.3c-0.9,0.7-0.7,2,0.3,2.5l8.4,3.5
		c0.6,0.2,1.3,0,1.5-0.6l9-21.8c0.3-0.6,0-1.3-0.7-1.6L303.9,181.9z"/>
	<path class="st7" d="M84,121.8c-1,0.4-1.2,1.8-0.4,2.5c0.7,0.5,1.4,1,2,1.3c0.8,0.4,1.2,0.8,1.6,1.3c1.3,2,0.5,4.8-1.7,5.8
		c-2.2,1-4.6,0.1-5.4-2c-0.4-1-0.4-1.8,0-3c0.3-0.7,0.4-1.5,0.6-2.3c0.2-1.1-0.9-2-1.9-1.6l-8.4,3.3c-0.6,0.2-0.9,0.9-0.7,1.5
		l8.5,22.1c0.2,0.6,0.9,0.9,1.5,0.7l8.4-3.2c1.1-0.4,1.3-1.8,0.4-2.5c-0.6-0.5-1.3-1-2-1.3c-0.8-0.4-1.2-0.8-1.6-1.3
		c-1.3-2-0.5-4.8,1.7-5.8c2.2-1,4.6-0.1,5.4,2c0.4,1,0.4,1.8,0,3c-0.3,0.7-0.4,1.5-0.6,2.3c-0.2,1.1,0.9,2,1.9,1.6l8.5-3.3
		c0.6-0.2,0.9-0.9,0.7-1.5l-8.5-22c-0.2-0.6-0.9-0.9-1.6-0.7L84,121.8z"/>
	<path class="st7" d="M379.4,138.1c-2.1,0.8-2.6,3.7-0.7,5.1c1.3,1.1,2.8,2.1,4.1,2.7c1.6,0.8,2.5,1.6,3.2,2.7
		c2.8,4.1,1.1,9.9-3.4,12c-4.4,2-9.4,0.3-11.2-4.2c-0.8-2-0.9-3.6,0.1-6.1c0.5-1.4,0.9-3.1,1.2-4.8c0.4-2.3-1.8-4.1-4-3.3l-17.3,6.7
		c-1.2,0.5-1.9,1.9-1.4,3.1l17.5,45.2c0.5,1.3,1.9,1.9,3.2,1.4l17.2-6.6c2.2-0.8,2.6-3.7,0.8-5.1c-1.3-1-2.8-2-4.1-2.7
		c-1.6-0.8-2.5-1.6-3.2-2.7c-2.8-4.1-1.1-9.9,3.4-12c4.4-2,9.4-0.3,11.2,4.2c0.8,2,0.9,3.6-0.1,6.1c-0.5,1.4-0.9,3.1-1.2,4.8
		c-0.4,2.2,1.8,4.1,3.9,3.2l17.3-6.7c1.2-0.5,1.8-1.9,1.4-3.1l-17.5-45.2c-0.5-1.3-1.9-1.9-3.2-1.4L379.4,138.1z"/>
	<path class="st7" d="M512,192.7c-1.7,0-2.8,1.9-1.9,3.4c0.6,1.1,1.4,2.2,2.1,3.1c0.9,1,1.3,1.8,1.5,2.8c0.8,3.6-2,7.2-5.7,7.4
		c-3.7,0.2-6.7-2.4-6.7-6c0-1.7,0.4-2.8,1.7-4.3c0.8-0.8,1.5-1.9,2.2-3c0.9-1.5-0.1-3.4-1.9-3.4l-14-0.1c-1,0-1.8,0.8-1.8,1.8
		l-0.3,36.6c0,1,0.8,1.8,1.8,1.9l13.9,0.1c1.7,0,2.8-1.9,2-3.4c-0.6-1.1-1.4-2.2-2.1-3c-0.9-1-1.3-1.8-1.5-2.8
		c-0.8-3.6,2-7.2,5.7-7.4c3.7-0.2,6.7,2.4,6.7,6c0,1.7-0.4,2.8-1.7,4.3c-0.8,0.8-1.5,1.9-2.2,3c-0.9,1.5,0.1,3.4,1.9,3.4l14,0.1
		c1,0,1.8-0.8,1.8-1.8l0.3-36.5c0-1-0.8-1.9-1.8-1.9L512,192.7z"/>
	<path class="st7" d="M578.1,54.4c-2.3-2.7-6.6-1.9-7.8,1.4c-0.9,2.5-1.6,5.1-1.9,7.3c-0.4,2.7-1.1,4.5-2.3,6
		c-4.6,6-13.8,6.5-19.1,1c-5.2-5.4-5.1-13.6,0.5-18.3c2.6-2.2,4.8-3.1,8.9-3c2.3,0.1,5-0.2,7.6-0.7c3.5-0.6,5-4.7,2.7-7.4
		l-18.3-21.8c-1.3-1.6-3.6-1.8-5.2-0.4l-57,47.9c-1.6,1.3-1.8,3.7-0.5,5.3l18.2,21.7c2.3,2.7,6.7,1.9,7.8-1.5c0.9-2.5,1.6-5,1.9-7.3
		c0.4-2.7,1.1-4.5,2.3-6c4.6-6,13.8-6.5,19.1-1c5.2,5.4,5.1,13.6-0.5,18.3c-2.6,2.2-4.8,3.1-8.9,3c-2.3-0.1-5,0.2-7.6,0.7
		c-3.5,0.6-5,4.7-2.7,7.4l18.4,21.8c1.3,1.5,3.6,1.7,5.2,0.4l57-47.9c1.6-1.4,1.8-3.8,0.5-5.4L578.1,54.4z"/>
	<path class="st7" d="M612.6,144.7c-2.5,1-2.9,4.3-0.8,6c1.6,1.2,3.3,2.4,4.9,3.1c1.9,0.9,3,1.9,3.9,3.1c3.3,4.8,1.4,11.6-3.8,14.1
		c-5.2,2.5-11.1,0.5-13.2-4.7c-1-2.4-1.1-4.2,0-7.2c0.6-1.7,1-3.7,1.3-5.7c0.4-2.7-2.2-4.7-4.7-3.7l-20.2,8.2
		c-1.4,0.6-2.1,2.2-1.6,3.7l21.3,52.7c0.6,1.5,2.3,2.2,3.7,1.6l20.1-8.1c2.5-1,2.9-4.4,0.8-6c-1.6-1.2-3.3-2.3-4.8-3.1
		c-1.9-0.9-3-1.9-3.9-3.1c-3.3-4.8-1.4-11.6,3.8-14.1c5.1-2.5,11.1-0.5,13.2,4.7c1,2.4,1.1,4.2,0,7.2c-0.6,1.7-1,3.7-1.3,5.7
		c-0.4,2.6,2.2,4.7,4.7,3.7l20.2-8.2c1.4-0.6,2.1-2.2,1.5-3.6l-21.3-52.7c-0.6-1.5-2.3-2.2-3.8-1.6L612.6,144.7z"/>
	<path class="st7" d="M180.7,73c-1.5-0.1-2.4,1.5-1.7,2.8c0.5,1,1.1,1.9,1.7,2.7c0.7,0.9,1.1,1.6,1.2,2.4c0.6,3.1-1.9,6.1-5,6.2
		c-3.1,0.1-5.6-2.2-5.5-5.3c0-1.4,0.4-2.4,1.6-3.6c0.7-0.7,1.3-1.6,1.9-2.5c0.8-1.2,0-2.9-1.5-2.9l-11.9-0.4c-0.9,0-1.6,0.6-1.6,1.5
		l-1.1,31.1c0,0.9,0.6,1.6,1.5,1.6l11.8,0.4c1.5,0.1,2.5-1.5,1.7-2.8c-0.5-1-1.1-1.9-1.7-2.6c-0.7-0.9-1.1-1.6-1.2-2.4
		c-0.6-3.1,1.9-6.1,5-6.2c3.1-0.1,5.6,2.2,5.5,5.3c0,1.4-0.4,2.4-1.6,3.6c-0.7,0.7-1.3,1.6-1.9,2.5c-0.8,1.2,0,2.9,1.5,2.9l11.9,0.4
		c0.8,0,1.6-0.6,1.6-1.5l1.1-31.1c0-0.9-0.7-1.6-1.5-1.6L180.7,73z"/>
	<path class="st7" d="M151.7,181.5c-1.4,0.5-1.6,2.4-0.5,3.3c0.9,0.7,1.8,1.3,2.6,1.7c1,0.5,1.6,1,2.1,1.7c1.8,2.6,0.7,6.4-2.1,7.7
		c-2.8,1.3-6.1,0.2-7.2-2.6c-0.5-1.3-0.6-2.3,0-3.9c0.3-0.9,0.6-2,0.7-3.1c0.2-1.5-1.2-2.6-2.6-2.1l-11.1,4.4
		c-0.8,0.3-1.2,1.2-0.9,2l11.4,29c0.3,0.8,1.2,1.2,2,0.9l11-4.3c1.4-0.5,1.6-2.4,0.5-3.3c-0.9-0.7-1.8-1.3-2.6-1.7
		c-1-0.5-1.6-1-2.1-1.7c-1.8-2.6-0.7-6.4,2.1-7.7c2.8-1.3,6.1-0.2,7.2,2.6c0.5,1.3,0.6,2.3,0,3.9c-0.3,0.9-0.6,2-0.7,3.1
		c-0.2,1.4,1.2,2.6,2.5,2.1l11.1-4.4c0.8-0.3,1.2-1.2,0.9-2l-11.4-29c-0.3-0.8-1.2-1.2-2.1-0.9L151.7,181.5z"/>
	<path class="st7" d="M397,40.5c-1.9,0-3.1,2.1-2.1,3.7c0.7,1.2,1.5,2.4,2.4,3.3c1,1.1,1.5,2,1.7,3c0.9,4-2.1,8-6.2,8.2
		c-4,0.3-7.4-2.6-7.4-6.6c0-1.8,0.4-3.1,1.9-4.7c0.8-0.9,1.6-2.1,2.4-3.4c1-1.6-0.2-3.7-2.1-3.7l-15.4,0c-1.1,0-2,0.9-2,2v40.2
		c0,1.1,0.9,2,2,2l15.3,0c1.9,0,3.1-2.1,2.1-3.7c-0.7-1.2-1.5-2.4-2.3-3.3c-1-1.1-1.5-2-1.7-3c-0.9-4,2.1-8,6.2-8.2
		c4-0.3,7.4,2.6,7.4,6.6c0,1.8-0.4,3.1-1.9,4.7c-0.8,0.9-1.6,2.1-2.4,3.4c-1,1.6,0.2,3.7,2.1,3.7l15.4,0c1.1,0,2-0.9,2-2V42.5
		c0-1.1-0.9-2.1-2.1-2.1L397,40.5z"/>
	<path class="st7" d="M80.5,187.3c-0.7-0.2-1.4,0.5-1.2,1.2c0.1,0.5,0.3,1.1,0.5,1.5c0.3,0.5,0.3,0.9,0.3,1.3
		c-0.1,1.6-1.7,2.8-3.3,2.5c-1.6-0.3-2.5-1.8-2.1-3.3c0.2-0.7,0.5-1.1,1.2-1.6c0.4-0.3,0.9-0.6,1.3-1c0.5-0.5,0.3-1.4-0.4-1.6
		l-5.9-1.7c-0.4-0.1-0.9,0.1-1,0.5l-4.4,15.3c-0.1,0.4,0.1,0.9,0.6,1l5.8,1.7c0.7,0.2,1.4-0.5,1.2-1.2c-0.1-0.5-0.3-1.1-0.5-1.5
		c-0.3-0.5-0.3-0.9-0.3-1.3c0.1-1.6,1.7-2.8,3.3-2.5c1.6,0.3,2.5,1.8,2.1,3.3c-0.2,0.7-0.5,1.1-1.2,1.6c-0.4,0.3-0.9,0.6-1.3,1
		c-0.5,0.5-0.3,1.4,0.4,1.6l5.9,1.7c0.4,0.1,0.9-0.1,1-0.5l4.4-15.3c0.1-0.4-0.1-0.9-0.6-1L80.5,187.3z"/>
	<path class="st7" d="M36,229.1c-0.7,0.3-0.8,1.2-0.2,1.7c0.4,0.3,0.9,0.7,1.3,0.9c0.5,0.3,0.8,0.5,1.1,0.9c0.9,1.3,0.4,3.3-1.1,3.9
		c-1.5,0.7-3.1,0.1-3.7-1.4c-0.3-0.7-0.3-1.2,0-2c0.2-0.5,0.3-1,0.4-1.6c0.1-0.7-0.6-1.3-1.3-1.1l-5.7,2.2c-0.4,0.2-0.6,0.6-0.5,1
		l5.8,14.9c0.2,0.4,0.6,0.6,1,0.5l5.7-2.2c0.7-0.3,0.8-1.2,0.2-1.7c-0.4-0.3-0.9-0.7-1.3-0.9c-0.5-0.3-0.8-0.5-1.1-0.9
		c-0.9-1.3-0.4-3.3,1.1-3.9c1.5-0.7,3.1-0.1,3.7,1.4c0.3,0.7,0.3,1.2,0,2c-0.2,0.5-0.3,1-0.4,1.6c-0.1,0.7,0.6,1.3,1.3,1.1l5.7-2.2
		c0.4-0.2,0.6-0.6,0.4-1l-5.7-14.9c-0.2-0.4-0.6-0.6-1.1-0.5L36,229.1z"/>
	<path class="st7" d="M47.1,75.8c-0.7,0.3-0.8,1.2-0.2,1.7c0.4,0.3,0.9,0.7,1.3,0.9c0.5,0.3,0.8,0.5,1.1,0.9
		c0.9,1.3,0.4,3.3-1.1,3.9c-1.5,0.7-3.1,0.1-3.7-1.4c-0.3-0.7-0.3-1.2,0-2c0.2-0.5,0.3-1,0.4-1.6c0.1-0.7-0.6-1.3-1.3-1.1l-5.7,2.2
		c-0.4,0.2-0.6,0.6-0.5,1l5.8,14.9c0.2,0.4,0.6,0.6,1,0.5l5.7-2.2c0.7-0.3,0.8-1.2,0.2-1.7c-0.4-0.3-0.9-0.7-1.3-0.9
		c-0.5-0.3-0.8-0.5-1.1-0.9c-0.9-1.3-0.4-3.3,1.1-3.9c1.5-0.7,3.1-0.1,3.7,1.4c0.3,0.7,0.3,1.2,0,2c-0.2,0.5-0.3,1-0.4,1.6
		c-0.1,0.7,0.6,1.3,1.3,1.1l5.7-2.2c0.4-0.2,0.6-0.6,0.4-1l-5.7-14.9c-0.2-0.4-0.6-0.6-1.1-0.5L47.1,75.8z"/>
	<path class="st7" d="M290.6,47.4c-1.5-1.1-3.7-0.1-3.9,1.8c-0.1,1.4-0.2,2.9,0,4.1c0.1,1.5,0,2.5-0.4,3.5c-1.6,3.8-6.4,5.2-9.9,3.1
		c-3.4-2.1-4.5-6.4-2.1-9.6c1.1-1.5,2.1-2.2,4.3-2.7c1.2-0.3,2.6-0.8,3.9-1.3c1.7-0.8,2-3.1,0.5-4.2l-12.5-9
		c-0.9-0.6-2.1-0.4-2.8,0.5L244.2,66c-0.7,0.9-0.4,2.2,0.5,2.8l12.4,8.9c1.6,1.1,3.7,0.1,3.9-1.8c0.1-1.4,0.2-2.8,0-4.1
		c-0.1-1.5,0-2.5,0.4-3.5c1.6-3.8,6.4-5.2,9.9-3.1c3.4,2.1,4.5,6.4,2.1,9.6c-1.1,1.5-2.1,2.2-4.3,2.7c-1.2,0.3-2.6,0.8-3.9,1.4
		c-1.7,0.8-2,3.1-0.5,4.2l12.5,9c0.9,0.6,2.1,0.4,2.8-0.4l23.5-32.6c0.7-0.9,0.5-2.2-0.5-2.9L290.6,47.4z"/>
	<path class="st7" d="M122.3,67.9c-1-0.4-2.1,0.4-2,1.5c0.1,0.8,0.3,1.7,0.5,2.3c0.3,0.8,0.4,1.4,0.2,2c-0.4,2.4-3,3.9-5.2,3.1
		c-2.2-0.8-3.4-3.1-2.5-5.2c0.4-1,0.9-1.6,2.1-2.1c0.7-0.3,1.4-0.8,2-1.3c0.9-0.7,0.7-2.1-0.3-2.5l-8.4-3.5c-0.6-0.2-1.3,0-1.5,0.6
		l-9,21.8c-0.3,0.6,0,1.3,0.6,1.6l8.3,3.4c1,0.4,2.2-0.4,2-1.6c-0.1-0.8-0.3-1.6-0.5-2.3c-0.3-0.8-0.4-1.4-0.2-2
		c0.4-2.4,3-3.9,5.2-3.1c2.2,0.8,3.4,3.1,2.5,5.2c-0.4,1-0.9,1.6-2.1,2.1c-0.7,0.3-1.4,0.8-2,1.3c-0.9,0.7-0.7,2,0.3,2.5l8.4,3.5
		c0.6,0.2,1.3,0,1.5-0.6l9-21.8c0.3-0.6,0-1.3-0.7-1.6L122.3,67.9z"/>
	<path class="st7" d="M320.8,83.3c-1.4,0.5-1.6,2.4-0.5,3.3c0.9,0.7,1.8,1.3,2.6,1.7c1,0.5,1.6,1,2.1,1.7c1.8,2.6,0.7,6.4-2.1,7.7
		c-2.8,1.3-6.1,0.2-7.2-2.6c-0.5-1.3-0.6-2.3,0-3.9c0.3-0.9,0.6-2,0.7-3.1c0.2-1.5-1.2-2.6-2.6-2.1l-11.1,4.4
		c-0.8,0.3-1.2,1.2-0.9,2l11.4,29c0.3,0.8,1.2,1.2,2,0.9l11-4.3c1.4-0.5,1.6-2.4,0.5-3.3c-0.9-0.7-1.8-1.3-2.6-1.7
		c-1-0.5-1.6-1-2.1-1.7c-1.8-2.6-0.7-6.4,2.1-7.7c2.8-1.3,6.1-0.2,7.2,2.6c0.5,1.3,0.6,2.3,0,3.9c-0.3,0.9-0.6,2-0.7,3.1
		c-0.2,1.4,1.2,2.6,2.5,2.1l11.1-4.4c0.8-0.3,1.2-1.2,0.9-2l-11.4-29c-0.3-0.8-1.2-1.2-2.1-0.9L320.8,83.3z"/>
</g>
</svg>
