<?xml version="1.0" encoding="utf-8"?>
<!-- Generator: Adobe Illustrator 19.0.0, SVG Export Plug-In . SVG Version: 6.00 Build 0)  -->
<svg version="1.1" id="图层_1" xmlns="http://www.w3.org/2000/svg" xmlns:xlink="http://www.w3.org/1999/xlink" x="0px" y="0px"
	 viewBox="0 0 200 200" style="enable-background:new 0 0 200 200;" xml:space="preserve">
<style type="text/css">
	.st0{fill:#323232;}
</style>
<g>
	<g>
		<path class="st0" d="M181.4,167.6H19.1c-10.2,0-18.5-8.3-18.5-18.5V35.4c0-2,1.7-3.7,3.7-3.7h191.9c2,0,3.7,1.7,3.7,3.7v113.6
			C199.8,159.3,191.6,167.6,181.4,167.6z M8,39.1v109.9c0,6.1,5,11.1,11.1,11.1h162.3c6.1,0,11.1-5,11.1-11.1V39.1H8z"/>
	</g>
	<g>
		<g>
			<path id="XMLID_4_" class="st0" d="M51.9,151.9c-2,0-3.7-1.7-3.7-3.7V51.1c0-2,1.7-3.7,3.7-3.7s3.7,1.7,3.7,3.7v97.1
				C55.6,150.2,54,151.9,51.9,151.9z"/>
		</g>
		<g>
			<path id="XMLID_3_" class="st0" d="M84.1,151.9c-2,0-3.7-1.7-3.7-3.7V51.1c0-2,1.7-3.7,3.7-3.7s3.7,1.7,3.7,3.7v97.1
				C87.8,150.2,86.2,151.9,84.1,151.9z"/>
		</g>
		<g>
			<path id="XMLID_2_" class="st0" d="M116.3,151.9c-2,0-3.7-1.7-3.7-3.7V51.1c0-2,1.7-3.7,3.7-3.7s3.7,1.7,3.7,3.7v97.1
				C120,150.2,118.4,151.9,116.3,151.9z"/>
		</g>
		<g>
			<path id="XMLID_1_" class="st0" d="M148.5,151.9c-2,0-3.7-1.7-3.7-3.7V51.1c0-2,1.7-3.7,3.7-3.7c2,0,3.7,1.7,3.7,3.7v97.1
				C152.2,150.2,150.6,151.9,148.5,151.9z"/>
		</g>
	</g>
</g>
</svg>
