<?xml version="1.0" encoding="utf-8"?>
<!-- Generator: Adobe Illustrator 19.0.0, SVG Export Plug-In . SVG Version: 6.00 Build 0)  -->
<svg version="1.1" id="图层_1" xmlns="http://www.w3.org/2000/svg" xmlns:xlink="http://www.w3.org/1999/xlink" x="0px" y="0px"
	 viewBox="0 0 200 200" style="enable-background:new 0 0 200 200;" xml:space="preserve">
<style type="text/css">
	.st0{fill:#323232;}
</style>
<g>
	<g>
		<path id="XMLID_11_" class="st0" d="M183.8,154.2H16.2C7.3,154.2,0,147,0,138V63c0-1.9,1.5-3.4,3.4-3.4s3.4,1.5,3.4,3.4v75
			c0,5.2,4.2,9.5,9.5,9.5h167.6c5.2,0,9.5-4.2,9.5-9.5V63c0-1.9,1.5-3.4,3.4-3.4s3.4,1.5,3.4,3.4v75
			C200,147,192.7,154.2,183.8,154.2z"/>
	</g>
	<g>
		<path id="XMLID_10_" class="st0" d="M183.8,81.4H16.2C7.3,81.4,0,73.1,0,63c0-1.9,1.5-3.4,3.4-3.4s3.4,1.5,3.4,3.4
			c0,6.4,4.2,11.6,9.5,11.6h167.6c5.2,0,9.5-5.2,9.5-11.6c0-1.9,1.5-3.4,3.4-3.4s3.4,1.5,3.4,3.4C200,73.1,192.7,81.4,183.8,81.4z"
			/>
	</g>
	<g>
		<path id="XMLID_9_" class="st0" d="M56.5,61.3H42.7c-1.9,0-3.4-1.5-3.4-3.4s1.5-3.4,3.4-3.4h13.9c1.9,0,3.4,1.5,3.4,3.4
			S58.4,61.3,56.5,61.3z"/>
	</g>
	<g>
		<path id="XMLID_8_" class="st0" d="M92.7,61.3H78.9c-1.9,0-3.4-1.5-3.4-3.4s1.5-3.4,3.4-3.4h13.9c1.9,0,3.4,1.5,3.4,3.4
			S94.6,61.3,92.7,61.3z"/>
	</g>
	<g>
		<path id="XMLID_7_" class="st0" d="M126.6,61.3h-13.9c-1.9,0-3.4-1.5-3.4-3.4s1.5-3.4,3.4-3.4h13.9c1.9,0,3.4,1.5,3.4,3.4
			S128.5,61.3,126.6,61.3z"/>
	</g>
	<g>
		<path class="st0" d="M68.9,71.3c-7.4,0-13.4-6-13.4-13.4s6-13.4,13.4-13.4c7.4,0,13.4,6,13.4,13.4S76.2,71.3,68.9,71.3z
			 M68.9,51.3c-3.7,0-6.6,3-6.6,6.6c0,3.7,3,6.6,6.6,6.6c3.7,0,6.6-3,6.6-6.6C75.5,54.3,72.5,51.3,68.9,51.3z"/>
	</g>
	<g>
		<path class="st0" d="M136.6,71.3c-7.4,0-13.4-6-13.4-13.4s6-13.4,13.4-13.4c7.4,0,13.4,6,13.4,13.4S144,71.3,136.6,71.3z
			 M136.6,51.3c-3.7,0-6.6,3-6.6,6.6c0,3.7,3,6.6,6.6,6.6c3.7,0,6.6-3,6.6-6.6C143.3,54.3,140.3,51.3,136.6,51.3z"/>
	</g>
	<g>
		<path class="st0" d="M102.7,71.3c-7.4,0-13.4-6-13.4-13.4s6-13.4,13.4-13.4c7.4,0,13.4,6,13.4,13.4S110.1,71.3,102.7,71.3z
			 M102.7,51.3c-3.7,0-6.6,3-6.6,6.6c0,3.7,3,6.6,6.6,6.6c3.7,0,6.6-3,6.6-6.6C109.4,54.3,106.4,51.3,102.7,51.3z"/>
	</g>
</g>
</svg>
