<?xml version="1.0" encoding="utf-8"?>
<!-- Generator: Adobe Illustrator 19.0.0, SVG Export Plug-In . SVG Version: 6.00 Build 0)  -->
<svg version="1.1" id="图层_1" xmlns="http://www.w3.org/2000/svg" xmlns:xlink="http://www.w3.org/1999/xlink" x="0px" y="0px"
	 viewBox="0 0 200 200" style="enable-background:new 0 0 200 200;" xml:space="preserve">
<style type="text/css">
	.st0{fill:#323232;}
</style>
<g>
	<g>
		<path class="st0" d="M163.3,200H36.1c-9.5,0-17.3-7.7-17.3-17.3V17.2c0-9.5,7.7-17.3,17.3-17.3h127.2c9.5,0,17.3,7.7,17.3,17.3
			v165.5C180.6,192.3,172.9,200,163.3,200z M36.1,6.8c-5.7,0-10.4,4.6-10.4,10.4v165.5c0,5.7,4.6,10.4,10.4,10.4h127.2
			c5.7,0,10.4-4.6,10.4-10.4V17.2c0-5.7-4.6-10.4-10.4-10.4H36.1z"/>
	</g>
	<g>
		<path class="st0" d="M144.3,176.5H57.4c-9.5,0-17.3-7.7-17.3-17.3V44c0-9.5,7.7-17.3,17.3-17.3h86.9c9.5,0,17.3,7.7,17.3,17.3
			v115.3C161.5,168.8,153.8,176.5,144.3,176.5z M57.4,33.6C51.6,33.6,47,38.3,47,44v115.3c0,5.7,4.6,10.4,10.4,10.4h86.9
			c5.7,0,10.4-4.6,10.4-10.4V44c0-5.7-4.6-10.4-10.4-10.4H57.4z"/>
	</g>
	<g>
		<path class="st0" d="M117.2,135.3c-8.8,0-12.8-16.2-12.8-31.3s4-31.3,12.8-31.3c1.9,0,3.5,1.5,3.5,3.5v55.7
			C120.7,133.8,119.2,135.3,117.2,135.3z M113.8,85.9c-1.3,4.1-2.4,10.1-2.4,18.1c0,8,1.1,14,2.4,18.1V85.9z"/>
	</g>
	<g>
		<path class="st0" d="M142.1,134.6c-8.8,0-12.8-16.2-12.8-31.3s4-31.3,12.8-31.3c1.9,0,3.5,1.5,3.5,3.5v55.7
			C145.6,133.1,144,134.6,142.1,134.6z M138.6,85.2c-1.3,4.1-2.4,10.1-2.4,18.1c0,8,1.1,14,2.4,18.1V85.2z"/>
	</g>
	<g>
		<path class="st0" d="M92.4,134.6c-8.8,0-12.8-16.2-12.8-31.3s4-31.3,12.8-31.3c1.9,0,3.5,1.5,3.5,3.5v55.7
			C95.8,133.1,94.3,134.6,92.4,134.6z M88.9,85.2c-1.3,4.1-2.4,10.1-2.4,18.1c0,8,1.1,14,2.4,18.1V85.2z"/>
	</g>
	<g>
		<path class="st0" d="M67.5,134.4c-8.8,0-12.8-16.2-12.8-31.3s4-31.3,12.8-31.3c1.9,0,3.5,1.5,3.5,3.5V131
			C71,132.9,69.4,134.4,67.5,134.4z M64.1,85c-1.3,4.1-2.4,10.1-2.4,18.1c0,8,1.1,14,2.4,18.1V85z"/>
	</g>
</g>
</svg>
