<?xml version="1.0" encoding="utf-8"?>
<!-- Generator: Adobe Illustrator 19.0.0, SVG Export Plug-In . SVG Version: 6.00 Build 0)  -->
<svg version="1.1" id="图层_1" xmlns="http://www.w3.org/2000/svg" xmlns:xlink="http://www.w3.org/1999/xlink" x="0px" y="0px"
	 viewBox="0 0 200 200" style="enable-background:new 0 0 200 200;" xml:space="preserve">
<style type="text/css">
	.st0{fill:#323232;}
</style>
<g>
	<g>
		<path class="st0" d="M121.4,118.9c-8.3,0-15.1-6.8-15.1-15.1c0-8.3,6.8-15.1,15.1-15.1c8.3,0,15.1,6.8,15.1,15.1
			C136.5,112.1,129.7,118.9,121.4,118.9z M121.4,95.5c-4.6,0-8.3,3.7-8.3,8.3c0,4.6,3.7,8.3,8.3,8.3s8.3-3.7,8.3-8.3
			C129.6,99.2,125.9,95.5,121.4,95.5z"/>
	</g>
	<g>
		<path class="st0" d="M163.4,200H36.6c-9.5,0-17.2-7.7-17.2-17.2v-165c0-9.5,7.7-17.2,17.2-17.2h126.8c9.5,0,17.2,7.7,17.2,17.2
			v165C180.6,192.3,172.9,200,163.4,200z M36.6,7.5c-5.7,0-10.3,4.6-10.3,10.3v165c0,5.7,4.6,10.3,10.3,10.3h126.8
			c5.7,0,10.3-4.6,10.3-10.3v-165c0-5.7-4.6-10.3-10.3-10.3H36.6z"/>
	</g>
	<g>
		<path class="st0" d="M100.7,159.3c-30.7,0-55.6-24.9-55.6-55.6c0-30.7,24.9-55.6,55.6-55.6c30.7,0,55.6,24.9,55.6,55.6
			C156.3,134.4,131.4,159.3,100.7,159.3z M100.7,55C73.8,55,52,76.9,52,103.7c0,26.9,21.9,48.7,48.7,48.7
			c26.9,0,48.7-21.9,48.7-48.7C149.4,76.9,127.6,55,100.7,55z"/>
	</g>
</g>
</svg>
