<?xml version="1.0" encoding="utf-8"?>
<!-- Generator: Adobe Illustrator 19.0.0, SVG Export Plug-In . SVG Version: 6.00 Build 0)  -->
<svg version="1.1" id="图层_1" xmlns="http://www.w3.org/2000/svg" xmlns:xlink="http://www.w3.org/1999/xlink" x="0px" y="0px"
	 viewBox="0 0 200 200" style="enable-background:new 0 0 200 200;" xml:space="preserve">
<style type="text/css">
	.st0{fill:#323232;}
</style>
<g>
	<g>
		<path class="st0" d="M172.7,200H28.1c-9.5,0-17.2-7.7-17.2-17.2V17.2C10.9,7.7,18.6,0,28.1,0h144.6c9.5,0,17.2,7.7,17.2,17.2
			v165.5C190,192.3,182.2,200,172.7,200z M28.1,6.9c-5.7,0-10.3,4.6-10.3,10.3v165.5c0,5.7,4.6,10.3,10.3,10.3h144.6
			c5.7,0,10.3-4.6,10.3-10.3V17.2c0-5.7-4.6-10.3-10.3-10.3H28.1z"/>
	</g>
	<g>
		<path id="XMLID_2_" class="st0" d="M100.4,165.3c-1.9,0-3.4-1.5-3.4-3.4V3.4c0-1.9,1.5-3.4,3.4-3.4s3.4,1.5,3.4,3.4v158.4
			C103.9,163.8,102.3,165.3,100.4,165.3z"/>
	</g>
	<g>
		<path id="XMLID_1_" class="st0" d="M100.4,200c-1.9,0-3.4-1.5-3.4-3.4v-34.7c0-1.9,1.5-3.4,3.4-3.4s3.4,1.5,3.4,3.4v34.7
			C103.9,198.5,102.3,200,100.4,200z"/>
	</g>
</g>
</svg>
