<?xml version="1.0" encoding="utf-8"?>
<!-- Generator: Adobe Illustrator 19.0.0, SVG Export Plug-In . SVG Version: 6.00 Build 0)  -->
<svg version="1.1" id="图层_1" xmlns="http://www.w3.org/2000/svg" xmlns:xlink="http://www.w3.org/1999/xlink" x="0px" y="0px" height="200px" width="200px"
	 viewBox="0 0 200 200" style="enable-background:new 0 0 200 200;" xml:space="preserve">
<style type="text/css">
	.st0{fill:none;stroke:#000000;stroke-miterlimit:10;}
	.st1{fill:#221E1F;}
</style>
<g id="XMLID_2_">
	<g id="XMLID_8_">
		<g id="XMLID_25_">
			<path id="XMLID_26_" d="M196.4,150.9h-23.3v-7h19.8v-0.7c0-22.6-8.4-25.6-16.5-25.6h-29.1c-1.1,0-2.1-0.5-2.8-1.4L123.3,88
				c-1.7-2.2-4.4-3.6-7.2-3.6H62.1c-2.8,0-5.5,1.3-7.2,3.6l-21.2,28.3c-0.7,0.9-1.7,1.4-2.8,1.4H7v26.2h19.8v7H3.5
				c-1.9,0-3.5-1.6-3.5-3.5v-33.3c0-1.9,1.6-3.5,3.5-3.5h25.6l20.1-26.9c3-4,7.8-6.4,12.8-6.4h54.1c5,0,9.8,2.4,12.8,6.4l20.1,26.9
				h27.4c23.5,0,23.5,24.5,23.5,32.6v4.2C199.9,149.3,198.4,150.9,196.4,150.9z"/>
		</g>
		<g id="XMLID_23_">
			<rect id="XMLID_24_" x="60.1" y="143.9" width="86.5" height="7"/>
		</g>
		<g id="XMLID_19_">
			<path id="XMLID_20_" d="M43.3,171.7c-11.1,0-20.1-9-20.1-20.1s9-20.1,20.1-20.1s20.1,9,20.1,20.1S54.4,171.7,43.3,171.7z
				 M43.3,138.4c-7.2,0-13.1,5.9-13.1,13.1s5.9,13.1,13.1,13.1s13.1-5.9,13.1-13.1S50.6,138.4,43.3,138.4z"/>
		</g>
		<g id="XMLID_15_">
			<path id="XMLID_16_" d="M159.8,171.7c-11.1,0-20.1-9-20.1-20.1s9-20.1,20.1-20.1c11.1,0,20.1,9,20.1,20.1
				S170.9,171.7,159.8,171.7z M159.8,138.4c-7.2,0-13.1,5.9-13.1,13.1s5.9,13.1,13.1,13.1c7.2,0,13.1-5.9,13.1-13.1
				S167,138.4,159.8,138.4z"/>
		</g>
		<g id="XMLID_13_">
			<rect id="XMLID_14_" x="26.8" y="110.6" width="126.4" height="7"/>
		</g>
		<g id="XMLID_11_">
			<path id="XMLID_12_" class="st0" d="M90,110.8"/>
		</g>
		<g id="XMLID_9_">
			<path id="XMLID_10_" class="st0" d="M90,84.2"/>
		</g>
	</g>
	<g id="XMLID_3_">
		<g id="XMLID_4_">
			<path id="XMLID_5_" class="st1" d="M6.4,23.8c4.3-0.7,10-1.3,17.3-1.3c8.9,0,15.4,2.1,19.5,5.8c3.8,3.3,6.1,8.4,6.1,14.6
				c0,6.3-1.9,11.3-5.4,14.9c-4.8,5.1-12.5,7.6-21.3,7.6c-2.7,0-5.2-0.1-7.2-0.6v27.9h-9V23.8z M15.4,57.4c2,0.5,4.4,0.7,7.4,0.7
				c10.8,0,17.5-5.3,17.5-14.9c0-9.2-6.5-13.6-16.4-13.6c-3.9,0-6.9,0.3-8.5,0.7V57.4z"/>
		</g>
	</g>
</g>
</svg>
