<?xml version="1.0" encoding="utf-8"?>
<!-- Generator: Adobe Illustrator 19.0.0, SVG Export Plug-In . SVG Version: 6.00 Build 0)  -->
<svg version="1.1" id="图层_1" xmlns="http://www.w3.org/2000/svg" xmlns:xlink="http://www.w3.org/1999/xlink" x="0px" y="0px"
	 viewBox="0 0 200 200" style="enable-background:new 0 0 200 200;" xml:space="preserve">
<style type="text/css">
	.st0{fill:#221E1F;}
</style>
<g>
	<g>
		<g>
			<path id="XMLID_9_" d="M131.8,200c-2.2,0-4.1-1.8-4.1-4.1c0-16.1-10.3-26.4-26.1-26.4H85.8c-2.2,0-4.1-1.8-4.1-4.1v-18.6
				c0-2.2,1.8-4.1,4.1-4.1c2.2,0,4.1,1.8,4.1,4.1v14.5h11.8c20.5,0,34.2,13.9,34.2,34.6C135.9,198.2,134.1,200,131.8,200z"/>
		</g>
		<g>
			<path id="XMLID_8_" d="M6.6,199c-2.2,0-4.1-1.8-4.1-4.1c0-20.7,12.6-33.5,32.9-33.5h14.6v-14.5c0-2.2,1.8-4.1,4.1-4.1
				c2.2,0,4.1,1.8,4.1,4.1v18.6c0,2.2-1.8,4.1-4.1,4.1H35.4c-15.9,0-24.7,9-24.7,25.4C10.6,197.1,8.8,199,6.6,199z"/>
		</g>
		<g>
			<path id="XMLID_7_" d="M67.7,156.9c-18,0-36.4-25.5-36.4-43.8c0-2.2,1.8-4.1,4.1-4.1s4.1,1.8,4.1,4.1c0,14.1,15.1,35.7,28.2,35.7
				c16,0,29.7-19.6,29.7-35.7c0-2.2,1.8-4.1,4.1-4.1s4.1,1.8,4.1,4.1C105.5,132.9,88.6,156.9,67.7,156.9z"/>
		</g>
		<g>
			<path id="XMLID_6_" d="M124,176.4c-1.4,0-2.8-0.8-3.6-2.1c-6.2-11.5-5.7-29.4-5.2-48.3c0.7-24.2,1.5-51.6-12.7-66.2
				C94.9,51.8,83.4,48,67.4,48C55.5,48,46.5,51.4,40,58.3c-15.9,17-13.5,52.3-11.8,78.1c1.3,19.5,2.1,31.2-4,35
				c-1.9,1.2-4.4,0.6-5.6-1.3c-1.1-1.9-0.6-4.3,1.2-5.5c2-2.5,1-16.4,0.3-27.6c-1.8-27.3-4.4-64.6,14-84.2
				c8-8.5,19.2-12.9,33.3-12.9c18.3,0,31.7,4.7,41,14.2c16.6,17.1,15.8,46.3,15,72.1c-0.5,17.8-1,34.6,4.2,44.2
				c1.1,2,0.3,4.4-1.6,5.5C125.4,176.3,124.7,176.4,124,176.4z"/>
		</g>
		<g>
			<path id="XMLID_5_" d="M45,166.9c-1.8,0-3.4-1.1-3.9-2.9C29.2,123.9,28,98.4,37.2,83.9c7.5-11.8,20.3-13.7,30.6-15.2
				c6.1-0.9,11.8-1.7,14.2-4.4c0.9-1,2.2-1.4,3.6-1.3c1.3,0.2,2.5,1,3.1,2.2c0.3,0.7,0.9,1.6,1.5,2.8c7.8,13.6,31.4,54.9-1.2,97.3
				c-1.4,1.8-3.9,2.1-5.7,0.7c-1.8-1.4-2.1-3.9-0.7-5.7c28.6-37.2,8.8-74,1.2-87.3c-4.1,2.1-9.3,2.9-14.7,3.7
				c-9.5,1.4-19.4,2.9-24.9,11.6c-7.7,12-6.1,36.7,4.8,73.4c0.6,2.2-0.6,4.4-2.7,5.1C45.8,166.8,45.4,166.9,45,166.9z"/>
		</g>
	</g>
	<g>
		<g>
			<path class="st0" d="M108.8,44v-3.6l4.1-4.5c9.9-10.7,14.3-16.4,14.4-23c0-4.5-1.9-8.6-7.7-8.6c-3.5,0-6.4,2-8.2,3.7l-1.7-4.2
				c2.7-2.6,6.5-4.5,11-4.5c8.3,0,11.8,6.5,11.8,12.8c0,8.1-5.2,14.7-13.3,23.6l-3.1,3.2V39h17.4V44H108.8z"/>
		</g>
		<g>
			<path class="st0" d="M155.5,44V32h-18v-3.9l17.3-28h5.7v27.3h5.4V32h-5.4v12H155.5z M155.5,27.3V12.7c0-2.3,0.1-4.6,0.2-6.9h-0.2
				c-1.2,2.6-2.1,4.5-3.2,6.5l-9.5,14.9v0.1H155.5z"/>
		</g>
	</g>
	<g>
		<g>
			<path class="st0" d="M172.3,0.6h5.1v17.4h0.1c0.8-1.4,2.1-2.7,3.6-3.6c1.5-0.9,3.3-1.4,5.2-1.4c3.7,0,9.7,2.3,9.7,11.9v16.6H191
				v-16c0-4.5-1.7-8.3-6.4-8.3c-3.3,0-5.9,2.3-6.8,5.1c-0.3,0.7-0.3,1.4-0.3,2.4v16.8h-5.1V0.6z"/>
		</g>
	</g>
</g>
</svg>
