<?xml version="1.0" encoding="utf-8"?>
<!-- Generator: Adobe Illustrator 19.0.0, SVG Export Plug-In . SVG Version: 6.00 Build 0)  -->
<svg version="1.1" id="图层_1" xmlns="http://www.w3.org/2000/svg" xmlns:xlink="http://www.w3.org/1999/xlink" x="0px" y="0px"
	 viewBox="0 0 200 200" style="enable-background:new 0 0 200 200;" xml:space="preserve">
<g>
	<g>
		<path d="M56.1,189c-0.6,0-1.2-0.1-1.7-0.4c-16.2-8.1-54-37.3-54-133c0-25.2,21.8-44,41.3-44c3.2,0,6.3,0.5,9.1,1.5
			c12.1,4,17.4,19.3,15.5,31.2c-2.2,13.3-12.7,20.2-26.6,16.4c-0.5,11.8,8.7,24,17.5,35.8c4.5,5.9,8.8,11.7,11.7,17.3
			c4.8-14.9,12.7-28.7,48.1-29.6c1.6-19.9,16.2-38.9,42.6-38.9c13.6,0,25.6,6.3,33.1,17.4c8.5,12.6,9.6,29.5,2.9,46.2
			c-6.4,12.9-18.1,19.8-26,21.4c-2.7,16.1-22.1,45.7-41.2,52c-10.3,3.4-23.8,3.4-36.9,3.4c-12.4,0-25.3,0-34.4,3
			C56.9,189,56.5,189,56.1,189z M41.7,19.3c-15.5,0-33.6,15.9-33.6,36.3c0,88.7,32.8,117,48.4,125.4c10.1-2.9,22.9-2.9,35.3-2.9
			c12.4,0,25.3,0,34.4-3c18-6,36.2-36.8,36.2-48.2c0-2.1,1.7-3.8,3.8-3.8c4.7,0,16.4-5.2,22.5-17.3c5.6-14.1,4.8-28.3-2.2-38.8
			c-6-8.9-15.8-14-26.7-14c-24.1,0-35,18.2-35,35c0,2.1-1.7,3.8-3.8,3.8c-37.4,0-41.2,13.1-46.1,29.6c-0.7,2.2-1.3,4.4-2.1,6.7
			c-0.6,1.8-2.4,2.9-4.3,2.6c-1.9-0.3-3.2-1.9-3.2-3.8c0-7-6.8-16.1-14-25.7c-10.5-14-22.4-29.9-18.3-46.5c0.3-1.1,1-2,2-2.5
			c1-0.5,2.1-0.6,3.2-0.1c3.4,1.4,6.5,2,9.1,2c8.5,0,10.8-6.9,11.5-11c1.4-8.6-2.5-20-10.3-22.7C46.3,19.7,44.1,19.3,41.7,19.3z"/>
	</g>
</g>
</svg>
