<?xml version="1.0" encoding="utf-8"?>
<!-- Generator: Adobe Illustrator 19.0.0, SVG Export Plug-In . SVG Version: 6.00 Build 0)  -->
<svg version="1.1" id="图层_1" xmlns="http://www.w3.org/2000/svg" xmlns:xlink="http://www.w3.org/1999/xlink" x="0px" y="0px"
	 viewBox="0 0 200 200" style="enable-background:new 0 0 200 200;" xml:space="preserve">
<style type="text/css">
	.st0{fill:#323232;}
</style>
<g>
	<g>
		<path class="st0" d="M38.2,200.3H36c-10.9,0-19.8-8.9-19.8-19.8V19.8C16.3,8.9,25.1,0,36,0h2.1c10.9,0,19.8,8.9,19.8,19.8v160.7
			C57.9,191.4,49.1,200.3,38.2,200.3z M36,7.9c-6.5,0-11.9,5.3-11.9,11.9v160.7c0,6.5,5.3,11.9,11.9,11.9h2.1
			c6.5,0,11.9-5.3,11.9-11.9V19.8c0-6.5-5.3-11.9-11.9-11.9H36z"/>
	</g>
	<g>
		<path class="st0" d="M100.7,200.3h-2.1c-10.9,0-19.8-8.9-19.8-19.8V19.8C78.8,8.9,87.7,0,98.6,0h2.1c10.9,0,19.8,8.9,19.8,19.8
			v160.7C120.5,191.4,111.6,200.3,100.7,200.3z M98.6,7.9c-6.5,0-11.9,5.3-11.9,11.9v160.7c0,6.5,5.3,11.9,11.9,11.9h2.1
			c6.5,0,11.9-5.3,11.9-11.9V19.8c0-6.5-5.3-11.9-11.9-11.9H98.6z"/>
	</g>
	<g>
		<path class="st0" d="M163.3,200.3h-2.1c-10.9,0-19.8-8.9-19.8-19.8V19.8c0-10.9,8.9-19.8,19.8-19.8h2.1c10.9,0,19.8,8.9,19.8,19.8
			v160.7C183.1,191.4,174.2,200.3,163.3,200.3z M161.2,7.9c-6.5,0-11.9,5.3-11.9,11.9v160.7c0,6.5,5.3,11.9,11.9,11.9h2.1
			c6.5,0,11.9-5.3,11.9-11.9V19.8c0-6.5-5.3-11.9-11.9-11.9H161.2z"/>
	</g>
</g>
</svg>
