<?xml version="1.0" encoding="utf-8"?>
<!-- Generator: Adobe Illustrator 19.0.0, SVG Export Plug-In . SVG Version: 6.00 Build 0)  -->
<svg version="1.1" id="图层_1" xmlns="http://www.w3.org/2000/svg" xmlns:xlink="http://www.w3.org/1999/xlink" x="0px" y="0px"
	 viewBox="0 0 200 200" style="enable-background:new 0 0 200 200;" xml:space="preserve">
<style type="text/css">
	.st0{fill:#323232;}
	.st1{fill:#221E1F;}
</style>
<g>
	<g>
		<path class="st0" d="M187.6,160.9H13c-6.9,0-12.6-5.6-12.6-12.6V52.6C0.4,45.6,6.1,40,13,40h174.7c6.9,0,12.6,5.6,12.6,12.6v95.8
			C200.2,155.3,194.6,160.9,187.6,160.9z M13,45c-4.2,0-7.5,3.4-7.5,7.5v95.8c0,4.2,3.4,7.5,7.5,7.5h174.7c4.2,0,7.5-3.4,7.5-7.5
			V52.6c0-4.2-3.4-7.5-7.5-7.5H13z"/>
	</g>
	<g>
		<path class="st0" d="M105.5,138.1H38.4c-6.9,0-12.6-5.6-12.6-12.6V75.4c0-6.9,5.6-12.6,12.6-12.6h67.1c6.9,0,12.6,5.6,12.6,12.6
			v50.2C118.1,132.5,112.5,138.1,105.5,138.1z M38.4,67.8c-4.2,0-7.5,3.4-7.5,7.5v50.2c0,4.2,3.4,7.5,7.5,7.5h67.1
			c4.2,0,7.5-3.4,7.5-7.5V75.4c0-4.2-3.4-7.5-7.5-7.5H38.4z"/>
	</g>
	<g>
		<path class="st0" d="M160.8,114.5c-9.8,0-17.9-8-17.9-17.9s8-17.9,17.9-17.9c9.8,0,17.9,8,17.9,17.9S170.6,114.5,160.8,114.5z
			 M160.8,83.8c-7.1,0-12.8,5.8-12.8,12.8c0,7.1,5.8,12.8,12.8,12.8c7.1,0,12.8-5.8,12.8-12.8C173.6,89.6,167.8,83.8,160.8,83.8z"/>
	</g>
	<g>
		<path id="XMLID_2_" class="st1" d="M63.5,121.6c-4.6-4.2-11.5-14.6-3.9-24.4c6.8-8.9,0.3-17.8,0-18.2l4-3c3.2,4.2,7.3,14.7,0,24.3
			c-6.6,8.6,2.9,17.3,3.3,17.6L63.5,121.6z"/>
	</g>
	<g>
		<path id="XMLID_1_" class="st1" d="M86.5,121.6c-4.6-4.2-11.5-14.6-3.9-24.4c6.8-8.9,0.3-17.8,0-18.2l4-3c3.2,4.2,7.3,14.7,0,24.3
			c-6.6,8.6,2.9,17.3,3.3,17.6L86.5,121.6z"/>
	</g>
</g>
</svg>
