<?xml version="1.0" encoding="utf-8"?>
<!-- Generator: Adobe Illustrator 19.0.0, SVG Export Plug-In . SVG Version: 6.00 Build 0)  -->
<svg version="1.1" id="图层_1" xmlns="http://www.w3.org/2000/svg" xmlns:xlink="http://www.w3.org/1999/xlink" x="0px" y="0px"
	 viewBox="0 0 200 200" style="enable-background:new 0 0 200 200;" xml:space="preserve">
<style type="text/css">
	.st0{fill:#323232;}
	.st1{fill:#221E1F;}
</style>
<g>
	<g>
		<path class="st0" d="M187.2,160.7H12.5C5.6,160.7,0,155,0,148.1V52.3c0-6.9,5.6-12.6,12.6-12.6h174.7c6.9,0,12.6,5.6,12.6,12.6
			v95.8C199.7,155,194.1,160.7,187.2,160.7z M12.5,44.8c-4.2,0-7.5,3.4-7.5,7.5v95.8c0,4.2,3.4,7.5,7.5,7.5h174.7
			c4.2,0,7.5-3.4,7.5-7.5V52.3c0-4.2-3.4-7.5-7.5-7.5H12.5z"/>
	</g>
	<g>
		<path class="st0" d="M105.1,137.9H38c-6.9,0-12.6-5.6-12.6-12.6V75.1c0-6.9,5.6-12.6,12.6-12.6h67.1c6.9,0,12.6,5.6,12.6,12.6
			v50.2C117.6,132.2,112,137.9,105.1,137.9z M38,67.5c-4.2,0-7.5,3.4-7.5,7.5v50.2c0,4.2,3.4,7.5,7.5,7.5h67.1
			c4.2,0,7.5-3.4,7.5-7.5V75.1c0-4.2-3.4-7.5-7.5-7.5H38z"/>
	</g>
	<g>
		<path class="st0" d="M160.3,114.2c-9.8,0-17.9-8-17.9-17.9s8-17.9,17.9-17.9c9.8,0,17.9,8,17.9,17.9S170.2,114.2,160.3,114.2z
			 M160.3,83.5c-7.1,0-12.8,5.8-12.8,12.8c0,7.1,5.8,12.8,12.8,12.8c7.1,0,12.8-5.8,12.8-12.8C173.1,89.3,167.4,83.5,160.3,83.5z"/>
	</g>
	<g>
		<rect id="XMLID_1_" x="48.3" y="97.7" class="st1" width="43" height="5"/>
	</g>
</g>
</svg>
