<?xml version="1.0" encoding="utf-8"?>
<!-- Generator: Adobe Illustrator 19.0.0, SVG Export Plug-In . SVG Version: 6.00 Build 0)  -->
<svg version="1.1" id="图层_1" xmlns="http://www.w3.org/2000/svg" xmlns:xlink="http://www.w3.org/1999/xlink" x="0px" y="0px"
	 viewBox="0 0 200 200" style="enable-background:new 0 0 200 200;" xml:space="preserve">
<style type="text/css">
	.st0{fill:#323232;}
</style>
<g>
	<g>
		<path class="st0" d="M96.2,199.7c-0.6,0-1.3-0.1-1.9-0.4L2.5,155.8C1,155,0,153.5,0,151.8V47.4c0-1.5,0.8-2.9,2.1-3.7
			c1.3-0.8,2.9-0.9,4.2-0.3l91.8,43.5c1.5,0.7,2.5,2.3,2.5,4v104.4c0,1.5-0.8,2.9-2.1,3.7C97.9,199.4,97.1,199.7,96.2,199.7z
			 M8.8,149l83,39.3V93.7l-83-39.3V149z"/>
	</g>
	<g>
		<path class="st0" d="M96.2,199.7c-0.8,0-1.7-0.2-2.4-0.7c-1.2-0.8-2-2.2-2-3.7V90.9c0-1.8,1-3.3,2.6-4L194,43.4
			c1.4-0.6,2.9-0.5,4.2,0.3c1.2,0.8,2,2.2,2,3.7v104.4c0,1.8-1,3.3-2.6,4L98,199.3C97.4,199.6,96.8,199.7,96.2,199.7z M100.7,93.8
			v94.7l90.7-39.6V54.2L100.7,93.8z"/>
	</g>
	<g>
		<path class="st0" d="M97.1,95.3c-0.6,0-1.3-0.1-1.9-0.4L2.5,51.4C1,50.7,0,49.1,0,47.4s1-3.3,2.5-4L95.2,0c1.1-0.5,2.5-0.6,3.7,0
			l98.6,43.5c1.6,0.7,2.6,2.3,2.6,4s-1,3.3-2.6,4L98.9,94.9C98.3,95.2,97.7,95.3,97.1,95.3z M14.8,47.4l82.4,38.6l87.6-38.6
			L97.2,8.8L14.8,47.4z"/>
	</g>
	<g>
		<path class="st0" d="M62.4,61c-7.7,0-14-6.3-14-14s6.3-14,14-14c7.7,0,14,6.3,14,14S70.1,61,62.4,61z M62.4,41.9
			c-2.8,0-5.2,2.3-5.2,5.2s2.3,5.2,5.2,5.2s5.2-2.3,5.2-5.2S65.3,41.9,62.4,41.9z"/>
	</g>
	<g>
		<path class="st0" d="M71.1,121.9c-7.7,0-14-6.3-14-14c0-7.7,6.3-14,14-14c7.7,0,14,6.3,14,14C85.1,115.6,78.8,121.9,71.1,121.9z
			 M71.1,102.8c-2.8,0-5.2,2.3-5.2,5.2c0,2.8,2.3,5.2,5.2,5.2s5.2-2.3,5.2-5.2C76.3,105.1,74,102.8,71.1,102.8z"/>
	</g>
	<g>
		<path class="st0" d="M118.9,123.1c-7.7,0-14-6.3-14-14c0-7.7,6.3-14,14-14c7.7,0,14,6.3,14,14
			C132.8,116.9,126.6,123.1,118.9,123.1z M118.9,104c-2.8,0-5.2,2.3-5.2,5.2c0,2.8,2.3,5.2,5.2,5.2s5.2-2.3,5.2-5.2
			C124,106.3,121.7,104,118.9,104z"/>
	</g>
	<g>
		<path class="st0" d="M144.9,110.7c-7.7,0-14-6.3-14-14s6.3-14,14-14c7.7,0,14,6.3,14,14S152.6,110.7,144.9,110.7z M144.9,91.6
			c-2.8,0-5.2,2.3-5.2,5.2c0,2.8,2.3,5.2,5.2,5.2c2.8,0,5.2-2.3,5.2-5.2C150.1,93.9,147.8,91.6,144.9,91.6z"/>
	</g>
	<g>
		<path class="st0" d="M171,98.4c-7.7,0-14-6.3-14-14c0-7.7,6.3-14,14-14c7.7,0,14,6.3,14,14C185,92.2,178.7,98.4,171,98.4z
			 M171,79.3c-2.8,0-5.1,2.3-5.1,5.2c0,2.8,2.3,5.2,5.1,5.2c2.9,0,5.2-2.3,5.2-5.2C176.2,81.6,173.9,79.3,171,79.3z"/>
	</g>
	<g>
		<path class="st0" d="M118.9,169.8c-7.7,0-14-6.3-14-14c0-7.7,6.3-14,14-14c7.7,0,14,6.3,14,14
			C132.8,163.5,126.6,169.8,118.9,169.8z M118.9,150.7c-2.8,0-5.2,2.3-5.2,5.1c0,2.8,2.3,5.2,5.2,5.2s5.2-2.3,5.2-5.2
			C124,153,121.7,150.7,118.9,150.7z"/>
	</g>
	<g>
		<path class="st0" d="M144.9,157.4c-7.7,0-14-6.3-14-14s6.3-14,14-14c7.7,0,14,6.3,14,14S152.6,157.4,144.9,157.4z M144.9,138.2
			c-2.8,0-5.2,2.3-5.2,5.2s2.3,5.2,5.2,5.2c2.8,0,5.2-2.3,5.2-5.2S147.8,138.2,144.9,138.2z"/>
	</g>
	<g>
		<path class="st0" d="M171,145.1c-7.7,0-14-6.3-14-14c0-7.7,6.3-14,14-14c7.7,0,14,6.3,14,14C185,138.8,178.7,145.1,171,145.1z
			 M171,126c-2.8,0-5.1,2.3-5.1,5.2c0,2.8,2.3,5.2,5.1,5.2c2.9,0,5.2-2.3,5.2-5.2C176.2,128.3,173.9,126,171,126z"/>
	</g>
	<g>
		<path class="st0" d="M71.1,165.4c-7.7,0-14-6.3-14-14c0-7.7,6.3-14,14-14c7.7,0,14,6.3,14,14C85.1,159.1,78.8,165.4,71.1,165.4z
			 M71.1,146.3c-2.8,0-5.2,2.3-5.2,5.2c0,2.8,2.3,5.1,5.2,5.1s5.2-2.3,5.2-5.1C76.3,148.6,74,146.3,71.1,146.3z"/>
	</g>
	<g>
		<path class="st0" d="M27.6,104.5c-7.7,0-14-6.3-14-14c0-7.7,6.3-14,14-14c7.7,0,14,6.3,14,14C41.6,98.3,35.3,104.5,27.6,104.5z
			 M27.6,85.4c-2.8,0-5.2,2.3-5.2,5.2c0,2.8,2.3,5.2,5.2,5.2s5.2-2.3,5.2-5.2C32.8,87.7,30.5,85.4,27.6,85.4z"/>
	</g>
	<g>
		<path class="st0" d="M27.6,148c-7.7,0-14-6.3-14-14s6.3-14,14-14c7.7,0,14,6.3,14,14S35.3,148,27.6,148z M27.6,128.9
			c-2.8,0-5.2,2.3-5.2,5.2c0,2.8,2.3,5.2,5.2,5.2s5.2-2.3,5.2-5.2C32.8,131.2,30.5,128.9,27.6,128.9z"/>
	</g>
	<g>
		<path class="st0" d="M97.2,61c-7.7,0-14-6.3-14-14s6.3-14,14-14s14,6.3,14,14S104.9,61,97.2,61z M97.2,41.9
			c-2.8,0-5.2,2.3-5.2,5.2s2.3,5.2,5.2,5.2c2.8,0,5.2-2.3,5.2-5.2S100,41.9,97.2,41.9z"/>
	</g>
	<g>
		<path class="st0" d="M132,61c-7.7,0-14-6.3-14-14s6.3-14,14-14c7.7,0,14,6.3,14,14S139.7,61,132,61z M132,41.9
			c-2.8,0-5.2,2.3-5.2,5.2s2.3,5.2,5.2,5.2c2.8,0,5.2-2.3,5.2-5.2S134.8,41.9,132,41.9z"/>
	</g>
</g>
</svg>
