<?xml version="1.0" encoding="utf-8"?>
<!-- Generator: Adobe Illustrator 19.0.0, SVG Export Plug-In . SVG Version: 6.00 Build 0)  -->
<svg version="1.1" id="图层_1" xmlns="http://www.w3.org/2000/svg" xmlns:xlink="http://www.w3.org/1999/xlink" x="0px" y="0px"
	 viewBox="0 0 200 200" style="enable-background:new 0 0 200 200;" xml:space="preserve">
<g>
	<g>
		<path d="M100.6,200h-1.3c-58.2,0-98.8-30.1-98.8-73.2c0-36.7,3.9-84,34.6-125.1c1.4-1.9,4-2.3,5.9-0.9c2.7,1.9,5.5,3.8,8.3,5.8
			c16.5,11.3,33.4,23,36.4,38.3c5.5-0.6,10.8-0.9,15.6-0.9c5.4,0,11.4,0.4,16.9,1c2.9-15.4,19.4-26.8,35.4-37.9
			c2.6-1.8,5.3-3.7,7.9-5.5c1.9-1.3,4.5-1,5.9,0.9c33.1,44.3,33.1,96.3,33.1,124.3C200.4,169.2,158.4,200,100.6,200z M39.5,10.1
			C12.6,48.4,9,92.4,9,126.8c0,38.1,37.1,64.7,90.3,64.7h1.3c52.9,0,91.2-27.2,91.2-64.7c0-36.3-2.3-78-29-115.9
			c-1.5,1-3,2.1-4.5,3.1c-15.8,10.9-32.1,22.2-32.1,35.5c0,1.2-0.5,2.5-1.5,3.3c-0.9,0.8-2.2,1.3-3.4,1.1c-6.2-1-13.6-1.5-20.1-1.5
			c-5.7,0-12.2,0.5-18.9,1.3c-1.2,0.2-2.4-0.2-3.4-1c-0.9-0.8-1.5-2-1.5-3.2c0-13.2-16.9-24.8-33.2-36
			C42.8,12.4,41.1,11.3,39.5,10.1z"/>
	</g>
	<g>
		<path d="M63.9,111.2c-7.2,0-13-5.8-13-12.8c0-7.1,5.8-12.8,13-12.8s13,5.8,13,12.8C76.9,105.5,71.1,111.2,63.9,111.2z M63.9,94.1
			c-2.5,0-4.5,1.9-4.5,4.3c0,2.4,2,4.3,4.5,4.3c2.5,0,4.5-1.9,4.5-4.3C68.4,96,66.4,94.1,63.9,94.1z"/>
	</g>
	<g>
		<path d="M135.4,111.2c-7.2,0-13-5.8-13-12.8c0-7.1,5.8-12.8,13-12.8c7.2,0,13,5.8,13,12.8C148.4,105.5,142.5,111.2,135.4,111.2z
			 M135.4,94.1c-2.5,0-4.5,1.9-4.5,4.3c0,2.4,2,4.3,4.5,4.3c2.5,0,4.5-1.9,4.5-4.3C139.9,96,137.9,94.1,135.4,94.1z"/>
	</g>
	<g>
		<path d="M95.2,149.8C95.2,149.8,95.2,149.8,95.2,149.8c-1.4,0-2.6-0.6-3.4-1.6l-18.2-23.4c-1-1.3-1.2-3-0.5-4.5
			c0.7-1.5,2.2-2.4,3.8-2.4h37.8c1.7,0,3.2,1,3.8,2.4c0.7,1.5,0.5,3.3-0.6,4.5l-19.6,23.4C97.7,149.3,96.5,149.8,95.2,149.8z
			 M85.7,126.4l9.7,12.4l10.4-12.4H85.7z"/>
	</g>
	<g>
		<path id="XMLID_5_" d="M95.2,169.9c-2.3,0-4.2-1.9-4.2-4.2v-20.1c0-2.3,1.9-4.2,4.2-4.2s4.2,1.9,4.2,4.2v20.1
			C99.5,168,97.6,169.9,95.2,169.9z"/>
	</g>
	<g>
		<g>
			<path id="XMLID_4_" d="M117.8,136.5c-2,0-3.8-1.4-4.2-3.5c-0.4-2.3,1.1-4.5,3.4-5l44.1-8.3c2.2-0.4,4.5,1.1,5,3.4
				c0.4,2.3-1.1,4.5-3.4,5l-44.1,8.3C118.4,136.4,118.1,136.5,117.8,136.5z"/>
		</g>
		<g>
			<path id="XMLID_3_" d="M117.8,153.6c-2,0-3.8-1.4-4.2-3.5c-0.4-2.3,1.1-4.5,3.4-5l44.1-8.3c2.2-0.4,4.5,1.1,5,3.4
				c0.4,2.3-1.1,4.5-3.4,5l-44.1,8.3C118.4,153.6,118.1,153.6,117.8,153.6z"/>
		</g>
	</g>
	<g>
		<g>
			<path id="XMLID_2_" d="M74.3,136.5c-0.3,0-0.5,0-0.8-0.1l-44.1-8.3c-2.3-0.4-3.8-2.7-3.4-5c0.4-2.3,2.7-3.8,5-3.4l44.1,8.3
				c2.3,0.4,3.8,2.7,3.4,5C78.1,135,76.3,136.5,74.3,136.5z"/>
		</g>
		<g>
			<path id="XMLID_1_" d="M74.3,153.6c-0.3,0-0.5,0-0.8-0.1l-44.1-8.3c-2.3-0.4-3.8-2.7-3.4-5c0.4-2.3,2.7-3.8,5-3.4l44.1,8.3
				c2.3,0.4,3.8,2.7,3.4,5C78.1,152.2,76.3,153.6,74.3,153.6z"/>
		</g>
	</g>
</g>
</svg>
