<?xml version="1.0" encoding="utf-8"?>
<!-- Generator: Adobe Illustrator 19.0.0, SVG Export Plug-In . SVG Version: 6.00 Build 0)  -->
<svg version="1.1" id="图层_1" xmlns="http://www.w3.org/2000/svg" xmlns:xlink="http://www.w3.org/1999/xlink" x="0px" y="0px"
	 viewBox="0 0 200 200" style="enable-background:new 0 0 200 200;" xml:space="preserve">
<style type="text/css">
	.st0{fill:#323232;}
</style>
<g>
	<g>
		<path class="st0" d="M149.3,199.1h-98c-8.8,0-15.9-7.1-15.9-15.9V16.3c0-8.8,7.1-15.9,15.9-15.9h98c8.8,0,15.9,7.1,15.9,15.9
			v166.9C165.3,192,158.1,199.1,149.3,199.1z M51.3,6.8c-5.3,0-9.6,4.3-9.6,9.6v166.9c0,5.3,4.3,9.6,9.6,9.6h98
			c5.3,0,9.6-4.3,9.6-9.6V16.3c0-5.3-4.3-9.6-9.6-9.6H51.3z"/>
	</g>
	<g>
		<path id="XMLID_3_" class="st0" d="M162.1,73.8H38.6c-1.8,0-3.2-1.4-3.2-3.2s1.4-3.2,3.2-3.2h123.5c1.8,0,3.2,1.4,3.2,3.2
			S163.8,73.8,162.1,73.8z"/>
	</g>
	<g>
		<path id="XMLID_2_" class="st0" d="M140.9,55.1c-1.8,0-3.2-1.4-3.2-3.2V19.2c0-1.8,1.4-3.2,3.2-3.2c1.8,0,3.2,1.4,3.2,3.2v32.7
			C144.1,53.7,142.6,55.1,140.9,55.1z"/>
	</g>
	<g>
		<path id="XMLID_1_" class="st0" d="M140.9,130.8c-1.8,0-3.2-1.4-3.2-3.2V87.4c0-1.8,1.4-3.2,3.2-3.2c1.8,0,3.2,1.4,3.2,3.2v40.2
			C144.1,129.4,142.6,130.8,140.9,130.8z"/>
	</g>
</g>
</svg>
