<?xml version="1.0" encoding="utf-8"?>
<!-- Generator: Adobe Illustrator 19.0.0, SVG Export Plug-In . SVG Version: 6.00 Build 0)  -->
<svg version="1.1" id="图层_1" xmlns="http://www.w3.org/2000/svg" xmlns:xlink="http://www.w3.org/1999/xlink" x="0px" y="0px"
	 viewBox="0 0 200 200" style="enable-background:new 0 0 200 200;" xml:space="preserve">
<style type="text/css">
	.st0{fill:#323232;}
	.st1{fill:#221E1F;}
</style>
<g id="XMLID_2_">
	<g id="XMLID_14_">
		<path id="XMLID_15_" class="st0" d="M187.4,160.5H12.6c-6.9,0-12.6-5.6-12.6-12.6V52.1c0-6.9,5.6-12.6,12.6-12.6h174.8
			c6.9,0,12.6,5.6,12.6,12.6v95.9C199.9,154.9,194.3,160.5,187.4,160.5z M12.6,44.5c-4.2,0-7.5,3.4-7.5,7.5v95.9
			c0,4.2,3.4,7.5,7.5,7.5h174.8c4.2,0,7.5-3.4,7.5-7.5V52.1c0-4.2-3.4-7.5-7.5-7.5H12.6z"/>
	</g>
	<g id="XMLID_3_">
		<g id="XMLID_10_">
			<path id="XMLID_11_" class="st1" d="M36.3,111.4L30,130.5h-8.1l20.7-61h9.5l20.8,61h-8.4l-6.5-19.2H36.3z M56.3,105.2l-6-17.6
				c-1.4-4-2.3-7.6-3.2-11.1H47c-0.9,3.6-1.9,7.3-3.1,11l-6,17.6H56.3z"/>
		</g>
		<g id="XMLID_7_">
			<path id="XMLID_8_" class="st1" d="M123.1,128.5c-2.9,1.4-8.7,2.9-16.1,2.9c-17.2,0-30.1-10.9-30.1-30.9c0-19.1,12.9-32,31.8-32
				c7.6,0,12.4,1.6,14.5,2.7l-1.9,6.4c-3-1.4-7.2-2.5-12.3-2.5c-14.3,0-23.8,9.1-23.8,25.2c0,14.9,8.6,24.5,23.4,24.5
				c4.8,0,9.7-1,12.8-2.5L123.1,128.5z"/>
		</g>
		<g id="XMLID_4_">
			<path id="XMLID_5_" class="st1" d="M131.8,120.9c3.5,2.2,8.7,4,14.1,4c8.1,0,12.8-4.3,12.8-10.4c0-5.7-3.3-9-11.5-12.1
				c-10-3.5-16.1-8.7-16.1-17.3c0-9.5,7.9-16.6,19.7-16.6c6.2,0,10.8,1.4,13.5,3l-2.2,6.4c-2-1.1-6.1-2.9-11.6-2.9
				c-8.3,0-11.5,5-11.5,9.1c0,5.7,3.7,8.5,12.1,11.8c10.3,4,15.6,9,15.6,17.9c0,9.4-7,17.6-21.4,17.6c-5.9,0-12.3-1.7-15.6-3.9
				L131.8,120.9z"/>
		</g>
	</g>
</g>
</svg>
