<?xml version="1.0" encoding="utf-8"?>
<!-- Generator: Adobe Illustrator 19.0.0, SVG Export Plug-In . SVG Version: 6.00 Build 0)  -->
<svg version="1.1" id="图层_1" xmlns="http://www.w3.org/2000/svg" xmlns:xlink="http://www.w3.org/1999/xlink" x="0px" y="0px"
	 viewBox="0 0 200 200" style="enable-background:new 0 0 200 200;" xml:space="preserve">
<g>
	<g>
		<path id="XMLID_7_" d="M159.5,109.8c-4.2,0-8.7-1.7-13.6-6.6c-7.2-7.2-11.6-4.8-19.4,0.5c-7.1,4.8-16.9,11.3-28.7-0.5
			c-7.2-7.2-11.6-4.8-19.4,0.5c-7.1,4.8-16.9,11.3-28.7-0.5c-7.2-7.2-11.6-4.8-19.4,0.5c-7.1,4.8-16.9,11.3-28.7-0.5
			c-1.4-1.4-1.4-3.8,0-5.2s3.8-1.4,5.2,0c7.2,7.2,11.6,4.8,19.5-0.5c7.1-4.8,16.9-11.3,28.7,0.5c7.2,7.2,11.6,4.8,19.5-0.5
			c7.1-4.8,16.9-11.3,28.7,0.5c7.2,7.2,11.6,4.8,19.5-0.5c7.1-4.8,16.9-11.3,28.7,0.5c7.2,7.2,11.6,4.8,19.5-0.5
			c7.1-4.8,16.9-11.3,28.7,0.5c1.4,1.4,1.4,3.8,0,5.2c-1.4,1.4-3.8,1.4-5.2,0c-7.2-7.2-11.6-4.8-19.4,0.5
			C170.5,106.4,165.4,109.8,159.5,109.8z"/>
	</g>
	<g>
		<path id="XMLID_6_" d="M159.5,146.6c-4.2,0-8.7-1.7-13.6-6.6c-7.2-7.2-11.6-4.8-19.4,0.5c-7.2,4.8-16.9,11.3-28.7-0.5
			c-7.2-7.2-11.6-4.8-19.4,0.5c-7.1,4.8-16.9,11.3-28.7-0.5c-7.2-7.2-11.6-4.8-19.4,0.5c-7.1,4.8-16.9,11.3-28.7-0.5
			c-1.4-1.4-1.4-3.8,0-5.2c1.4-1.4,3.8-1.4,5.2,0c7.2,7.2,11.6,4.8,19.4-0.5c7.1-4.8,16.9-11.3,28.7,0.5c7.2,7.2,11.6,4.8,19.4-0.5
			c7.2-4.8,16.9-11.3,28.7,0.5c7.2,7.2,11.6,4.8,19.4-0.5c7.2-4.8,16.9-11.3,28.7,0.5c7.2,7.2,11.6,4.8,19.4-0.5
			c7.2-4.8,16.9-11.3,28.7,0.5c1.4,1.4,1.4,3.8,0,5.2c-1.4,1.4-3.8,1.4-5.2,0c-7.2-7.2-11.6-4.8-19.4,0.5
			C170.5,143.2,165.4,146.6,159.5,146.6z"/>
	</g>
	<g>
		<path id="XMLID_5_" d="M159.5,183.3c-4.2,0-8.7-1.7-13.6-6.6c-7.2-7.2-11.6-4.8-19.4,0.5c-7.1,4.8-16.9,11.3-28.7-0.5
			c-7.2-7.2-11.6-4.8-19.4,0.5c-7.1,4.8-16.9,11.3-28.7-0.5c-7.2-7.2-11.6-4.8-19.4,0.5c-7.1,4.8-16.9,11.3-28.7-0.5
			c-1.4-1.4-1.4-3.8,0-5.2c1.4-1.4,3.8-1.4,5.2,0c7.2,7.2,11.6,4.8,19.4-0.5c7.1-4.8,16.9-11.3,28.7,0.5c7.2,7.2,11.6,4.8,19.4-0.5
			c7.2-4.8,16.9-11.3,28.7,0.5c7.2,7.2,11.6,4.8,19.4-0.5c7.2-4.8,16.9-11.3,28.7,0.5c7.2,7.2,11.6,4.8,19.4-0.5
			c7.2-4.8,16.9-11.3,28.7,0.5c1.4,1.4,1.4,3.8,0,5.2c-1.4,1.4-3.8,1.4-5.2,0c-7.2-7.2-11.6-4.8-19.4,0.5
			C170.5,179.9,165.4,183.3,159.5,183.3z"/>
	</g>
	<g>
		<path id="XMLID_4_" d="M123.2,85c-2,0-3.7-1.6-3.7-3.7V42.8c0-17.9,14.6-32.6,32.6-32.6c2,0,3.7,1.6,3.7,3.7s-1.6,3.7-3.7,3.7
			c-13.9,0-25.2,11.3-25.2,25.2v38.5C126.9,83.4,125.2,85,123.2,85z"/>
	</g>
	<g>
		<path id="XMLID_3_" d="M165.2,85c-2,0-3.7-1.6-3.7-3.7V42.8c0-17.9,14.6-32.6,32.6-32.6c2,0,3.7,1.6,3.7,3.7s-1.6,3.7-3.7,3.7
			c-13.9,0-25.2,11.3-25.2,25.2v38.5C168.9,83.4,167.3,85,165.2,85z"/>
	</g>
	<g>
		<path id="XMLID_2_" d="M161.7,46.5h-35c-2,0-3.7-1.6-3.7-3.7s1.6-3.7,3.7-3.7h35c2,0,3.7,1.6,3.7,3.7S163.8,46.5,161.7,46.5z"/>
	</g>
	<g>
		<path id="XMLID_1_" d="M161.7,74.5h-35c-2,0-3.7-1.6-3.7-3.7s1.6-3.7,3.7-3.7h35c2,0,3.7,1.6,3.7,3.7S163.8,74.5,161.7,74.5z"/>
	</g>
</g>
</svg>
