<?xml version="1.0" encoding="utf-8"?>
<!-- Generator: Adobe Illustrator 19.0.0, SVG Export Plug-In . SVG Version: 6.00 Build 0)  -->
<svg version="1.1" id="图层_1" xmlns="http://www.w3.org/2000/svg" xmlns:xlink="http://www.w3.org/1999/xlink" x="0px" y="0px"
	 viewBox="0 0 200 200" style="enable-background:new 0 0 200 200;" xml:space="preserve">
<style type="text/css">
	.st0{fill:#323232;}
</style>
<g>
	<g>
		<path class="st0" d="M66.1,56.7c-8.4,0-15.2-6.8-15.2-15.2c0-8.4,6.8-15.2,15.2-15.2c8.4,0,15.2,6.8,15.2,15.2
			C81.3,49.9,74.5,56.7,66.1,56.7z M66.1,33.3c-4.6,0-8.3,3.7-8.3,8.3s3.7,8.3,8.3,8.3s8.3-3.7,8.3-8.3S70.7,33.3,66.1,33.3z"/>
	</g>
	<g>
		<path class="st0" d="M135.1,56.7c-8.4,0-15.2-6.8-15.2-15.2c0-8.4,6.8-15.2,15.2-15.2c8.4,0,15.2,6.8,15.2,15.2
			C150.2,49.9,143.4,56.7,135.1,56.7z M135.1,33.3c-4.6,0-8.3,3.7-8.3,8.3s3.7,8.3,8.3,8.3c4.6,0,8.3-3.7,8.3-8.3
			S139.6,33.3,135.1,33.3z"/>
	</g>
	<g>
		<path class="st0" d="M163.4,200h-127c-9.5,0-17.2-7.7-17.2-17.2V17.5c0-9.5,7.7-17.2,17.2-17.2h127c9.5,0,17.2,7.7,17.2,17.2
			v165.3C180.6,192.3,172.9,200,163.4,200z M36.4,7.2C30.7,7.2,26,11.8,26,17.5v165.3c0,5.7,4.6,10.3,10.3,10.3h127
			c5.7,0,10.3-4.6,10.3-10.3V17.5c0-5.7-4.6-10.3-10.3-10.3H36.4z"/>
	</g>
	<g>
		<path class="st0" d="M100.6,150.2c-21.9,0-39.7-17.8-39.7-39.7s17.8-39.7,39.7-39.7s39.7,17.8,39.7,39.7S122.5,150.2,100.6,150.2z
			 M100.6,77.7c-18.1,0-32.8,14.7-32.8,32.8s14.7,32.8,32.8,32.8c18.1,0,32.8-14.7,32.8-32.8S118.7,77.7,100.6,77.7z"/>
	</g>
	<g>
		<path id="XMLID_1_" class="st0" d="M134.2,122.1c-8.4-7.8-20.6-10.6-31.9-7.2c-14.1,4.2-29.3,0.6-39.6-9.6l4.9-4.9
			c8.5,8.4,21,11.4,32.7,7.9c13.6-4.1,28.4-0.7,38.6,8.7L134.2,122.1z"/>
	</g>
</g>
</svg>
