<?xml version="1.0" encoding="utf-8"?>
<!-- Generator: Adobe Illustrator 19.0.0, SVG Export Plug-In . SVG Version: 6.00 Build 0)  -->
<svg version="1.1" id="图层_1" xmlns="http://www.w3.org/2000/svg" xmlns:xlink="http://www.w3.org/1999/xlink" x="0px" y="0px"
	 viewBox="0 0 200 200" style="enable-background:new 0 0 200 200;" xml:space="preserve">
<g>
	<g>
		<g>
			<path id="XMLID_11_" d="M62.8,147.3c-1.3,0-2.4-1.1-2.4-2.4v-36.8c0-1.3,1.1-2.4,2.4-2.4c1.3,0,2.4,1.1,2.4,2.4V145
				C65.2,146.3,64.1,147.3,62.8,147.3z"/>
		</g>
		<g>
			<path d="M56.2,137.8L56.2,137.8c-5.9,0-10.9-2.1-14.4-6c-3.7-4-5.5-9.9-4.9-15.7c0.1-1.3,1.2-2.2,2.5-2.1
				c7.3,0.4,13.4,3,17.2,7.4c3.3,3.8,4.7,8.7,4.2,14.2c-0.1,1.1-1,2-2.1,2.1C57.7,137.8,57,137.8,56.2,137.8z M41.5,119
				c0.2,3.7,1.5,7.2,3.8,9.7c2.6,2.9,6.3,4.4,10.8,4.5c0-3.4-1.1-6.3-3.1-8.6C50.4,121.6,46.4,119.6,41.5,119z"/>
		</g>
		<g>
			<path d="M63.3,109.6c-10.4,0-18.8-8.4-18.8-18.8S52.9,72,63.3,72c10.4,0,18.8,8.4,18.8,18.8S73.7,109.6,63.3,109.6z M63.3,76.7
				c-7.8,0-14.1,6.3-14.1,14.1s6.3,14.1,14.1,14.1c7.8,0,14.1-6.3,14.1-14.1S71.1,76.7,63.3,76.7z"/>
		</g>
		<g>
			<g>
				<path id="XMLID_6_" d="M86.9,65.7c-0.4,0-0.7-0.1-1.1-0.3c-1.2-0.6-1.6-2-1-3.2c1.6-3.2,0.3-7-2.8-8.6c-3.2-1.6-7-0.3-8.6,2.8
					c-0.6,1.2-2,1.6-3.2,1c-1.2-0.6-1.6-2-1-3.2c2.8-5.5,9.5-7.7,15-4.9c5.5,2.8,7.7,9.5,4.9,15C88.6,65.3,87.8,65.7,86.9,65.7z"/>
			</g>
			<g>
				<path id="XMLID_5_" d="M99.3,96.4c-1.1,0-2.1-0.8-2.3-2c-0.2-1.3,0.7-2.5,2-2.7c1.7-0.3,3.2-1.2,4.2-2.6c1-1.4,1.4-3.1,1.2-4.8
					c-0.3-1.7-1.2-3.2-2.6-4.2c-1.4-1-3-1.4-4.8-1.2c-1.2,0.2-2.5-0.7-2.7-2c-0.2-1.3,0.7-2.5,2-2.7c2.9-0.5,5.9,0.3,8.3,2
					c2.4,1.8,4,4.3,4.4,7.3c0.5,2.9-0.3,5.9-2,8.3c-1.8,2.4-4.3,4-7.3,4.4C99.6,96.4,99.4,96.4,99.3,96.4z"/>
			</g>
			<g>
				<path id="XMLID_4_" d="M85.9,128.8c-0.3,0-0.6,0-1,0c-3-0.3-5.7-1.6-7.6-3.9c-0.8-1-0.7-2.5,0.3-3.3c1-0.8,2.5-0.7,3.3,0.3
					c1.1,1.3,2.7,2.1,4.4,2.3c1.7,0.1,3.4-0.4,4.7-1.5c2.7-2.3,3.1-6.3,0.8-9c-0.8-1-0.7-2.5,0.3-3.3c1-0.8,2.5-0.7,3.3,0.3
					c3.9,4.7,3.3,11.7-1.3,15.7C91.1,127.8,88.5,128.8,85.9,128.8z"/>
			</g>
			<g>
				<path id="XMLID_3_" d="M28.2,103.4c-5.9,0-10.9-4.7-11.1-10.7c-0.1-3,0.9-5.8,2.9-8c2-2.2,4.8-3.5,7.7-3.6
					c1.2-0.1,2.4,1,2.5,2.3c0.1,1.3-1,2.4-2.3,2.5c-1.7,0.1-3.3,0.8-4.5,2.1c-1.2,1.3-1.8,2.9-1.7,4.6c0.1,3.5,3,6.3,6.7,6.1
					c1.4-0.2,2.4,1,2.5,2.3c0.1,1.3-1,2.4-2.3,2.5C28.5,103.4,28.4,103.4,28.2,103.4z"/>
			</g>
			<g>
				<path id="XMLID_2_" d="M36.5,68.8c-0.8,0-1.5-0.4-2-1c-3.4-5.1-2-12,3.1-15.4c2.5-1.6,5.4-2.2,8.4-1.7c2.9,0.6,5.4,2.3,7.1,4.7
					c0.7,1.1,0.4,2.5-0.7,3.3c-1.1,0.7-2.5,0.4-3.3-0.7c-1-1.4-2.4-2.4-4.1-2.7c-1.7-0.3-3.4,0-4.8,1c-2.9,2-3.7,6-1.8,8.9
					c0.7,1.1,0.4,2.5-0.7,3.3C37.4,68.7,37,68.8,36.5,68.8z"/>
			</g>
		</g>
	</g>
	<g>
		<path id="XMLID_1_" d="M197.6,150.9H2.4c-1.3,0-2.4-1.1-2.4-2.4V91.8c0-1.3,1.1-2.4,2.4-2.4s2.4,1.1,2.4,2.4v54.4h190.6V91.8
			c0-1.3,1.1-2.4,2.4-2.4c1.3,0,2.4,1.1,2.4,2.4v56.7C200,149.8,198.9,150.9,197.6,150.9z"/>
	</g>
</g>
</svg>
