<?xml version="1.0" encoding="utf-8"?>
<!-- Generator: Adobe Illustrator 19.0.0, SVG Export Plug-In . SVG Version: 6.00 Build 0)  -->
<svg version="1.1" id="图层_1" xmlns="http://www.w3.org/2000/svg" xmlns:xlink="http://www.w3.org/1999/xlink" x="0px" y="0px"
	 viewBox="0 0 200 200" style="enable-background:new 0 0 200 200;" xml:space="preserve">
<style type="text/css">
	.st0{fill:#323232;}
</style>
<g>
	<g>
		<path class="st0" d="M189.1,136.7H10.9c-6,0-10.9-4.9-10.9-10.9v-52c0-6,4.9-10.9,10.9-10.9h178.2c6,0,10.9,4.9,10.9,10.9v52
			C200,131.8,195.1,136.7,189.1,136.7z M10.9,67.3c-3.6,0-6.5,2.9-6.5,6.5v52c0,3.6,2.9,6.5,6.5,6.5h178.2c3.6,0,6.5-2.9,6.5-6.5
			v-52c0-3.6-2.9-6.5-6.5-6.5H10.9z"/>
	</g>
	<g>
		<path class="st0" d="M171,120.6H29c-6,0-10.9-4.9-10.9-10.9v-1.2c0-6,4.9-10.9,10.9-10.9h142c6,0,10.9,4.9,10.9,10.9v1.2
			C181.9,115.7,177,120.6,171,120.6z M29,102c-3.6,0-6.5,2.9-6.5,6.5v1.2c0,3.6,2.9,6.5,6.5,6.5h142c3.6,0,6.5-2.9,6.5-6.5v-1.2
			c0-3.6-2.9-6.5-6.5-6.5H29z"/>
	</g>
</g>
</svg>
