<?xml version="1.0" encoding="utf-8"?>
<!-- Generator: Adobe Illustrator 19.0.0, SVG Export Plug-In . SVG Version: 6.00 Build 0)  -->
<svg version="1.1" id="图层_1" xmlns="http://www.w3.org/2000/svg" xmlns:xlink="http://www.w3.org/1999/xlink" x="0px" y="0px"
	 viewBox="0 0 200 200" style="enable-background:new 0 0 200 200;" xml:space="preserve">
<style type="text/css">
	.st0{fill:#323232;}
</style>
<g>
	<g>
		<path class="st0" d="M159.8,93.6H34.7c-1.6,0-2.9-1.3-2.9-2.9V71c0-1.6,1.3-2.9,2.9-2.9h125.1c1.6,0,2.9,1.3,2.9,2.9v19.8
			C162.7,92.3,161.4,93.6,159.8,93.6z M37.6,87.8h119.3v-14H37.6V87.8z"/>
	</g>
	<g>
		<path class="st0" d="M146.6,199H83.1c-0.7,0-1.4-0.3-2-0.8l-28.7-26.3c-0.6-0.5-0.9-1.3-0.9-2.1v-79c0-1.6,1.3-2.9,2.9-2.9h92.2
			c1.6,0,2.9,1.3,2.9,2.9v105.4C149.5,197.7,148.2,199,146.6,199z M84.2,193.2h59.5V93.6H57.3v74.8L84.2,193.2z"/>
	</g>
	<g>
		<path id="XMLID_4_" class="st0" d="M186.1,133.1h-36.2c-1.6,0-2.9-1.3-2.9-2.9s1.3-2.9,2.9-2.9h33.3V60.7H17.8v66.6h33.3
			c1.6,0,2.9,1.3,2.9,2.9s-1.3,2.9-2.9,2.9H14.9c-1.6,0-2.9-1.3-2.9-2.9V57.8c0-1.6,1.3-2.9,2.9-2.9h171.2c1.6,0,2.9,1.3,2.9,2.9
			v72.4C189,131.8,187.7,133.1,186.1,133.1z"/>
	</g>
	<g>
		<path class="st0" d="M153.2,60.7H47.8c-1.6,0-2.9-1.3-2.9-2.9V5.1c0-1.6,1.3-2.9,2.9-2.9h105.4c1.6,0,2.9,1.3,2.9,2.9v52.7
			C156.1,59.4,154.8,60.7,153.2,60.7z M50.7,54.9h99.5V8H50.7V54.9z"/>
	</g>
	<g>
		<path id="XMLID_1_" class="st0" d="M87.3,195.7c-1.6,0-2.9-1.3-2.9-2.9v-20.1H57.7c-1.6,0-2.9-1.3-2.9-2.9s1.3-2.9,2.9-2.9h29.6
			c1.6,0,2.9,1.3,2.9,2.9v23.1C90.2,194.4,88.9,195.7,87.3,195.7z"/>
	</g>
</g>
</svg>
