<?xml version="1.0" encoding="utf-8"?>
<!-- Generator: Adobe Illustrator 19.0.0, SVG Export Plug-In . SVG Version: 6.00 Build 0)  -->
<svg version="1.1" id="图层_1" xmlns="http://www.w3.org/2000/svg" xmlns:xlink="http://www.w3.org/1999/xlink" x="0px" y="0px"
	 viewBox="0 0 200 200" style="enable-background:new 0 0 200 200;" xml:space="preserve">
<style type="text/css">
	.st0{fill:#323232;}
</style>
<g>
	<g>
		<path class="st0" d="M48.9,143.5H15c-8.3,0-15-6.8-15-15V67c0-8.3,6.7-15,15-15h33.8c8.3,0,15,6.8,15,15v61.5
			C63.9,136.8,57.2,143.5,48.9,143.5z M15,57.9c-5,0-9,4.1-9,9v61.5c0,5,4.1,9,9,9h33.8c5,0,9-4.1,9-9V67c0-5-4.1-9-9-9H15z"/>
	</g>
	<g>
		<path class="st0" d="M32.2,125.5c-12.5,0-22.6-11.8-22.6-26.2S19.8,73,32.2,73s22.6,11.8,22.6,26.2S44.7,125.5,32.2,125.5z
			 M32.2,79.1c-9.1,0-16.6,9.1-16.6,20.2s7.4,20.2,16.6,20.2s16.6-9.1,16.6-20.2S41.4,79.1,32.2,79.1z"/>
	</g>
	<g>
		<path id="XMLID_11_" class="st0" d="M49.4,107.1c-4.3-4.7-10.2-6.3-15.8-4.3c-8.2,2.9-16.9,0.4-22.8-6.5l4.6-3.9
			c4.2,5,10.4,6.8,16.2,4.7c7.9-2.8,16.4-0.5,22.3,5.9L49.4,107.1z"/>
	</g>
</g>
<g>
	<g>
		<path class="st0" d="M116.9,143.5H83.1c-8.3,0-15-6.8-15-15V67c0-8.3,6.7-15,15-15h33.8c8.3,0,15,6.8,15,15v61.5
			C132,136.8,125.2,143.5,116.9,143.5z M83.1,57.9c-5,0-9,4.1-9,9v61.5c0,5,4.1,9,9,9h33.8c5,0,9-4.1,9-9V67c0-5-4.1-9-9-9H83.1z"/>
	</g>
	<g>
		<path class="st0" d="M100.3,125.5c-12.5,0-22.6-11.8-22.6-26.2S87.8,73,100.3,73c12.5,0,22.6,11.8,22.6,26.2
			S112.7,125.5,100.3,125.5z M100.3,79.1c-9.1,0-16.6,9.1-16.6,20.2s7.4,20.2,16.6,20.2s16.6-9.1,16.6-20.2S109.4,79.1,100.3,79.1z"
			/>
	</g>
	<g>
		<path id="XMLID_6_" class="st0" d="M117.4,107.1c-4.3-4.7-10.2-6.3-15.8-4.3c-8.2,2.9-16.9,0.4-22.8-6.5l4.6-3.9
			c4.2,5,10.4,6.8,16.2,4.7c7.9-2.8,16.4-0.5,22.3,5.9L117.4,107.1z"/>
	</g>
</g>
<g>
	<g>
		<path class="st0" d="M185,143.5h-33.8c-8.3,0-15-6.8-15-15V67c0-8.3,6.7-15,15-15H185c8.3,0,15,6.8,15,15v61.5
			C200,136.8,193.3,143.5,185,143.5z M151.1,57.9c-5,0-9,4.1-9,9v61.5c0,5,4.1,9,9,9H185c5,0,9-4.1,9-9V67c0-5-4.1-9-9-9H151.1z"/>
	</g>
	<g>
		<path class="st0" d="M168.3,125.5c-12.5,0-22.6-11.8-22.6-26.2S155.9,73,168.3,73c12.5,0,22.6,11.8,22.6,26.2
			S180.8,125.5,168.3,125.5z M168.3,79.1c-9.1,0-16.6,9.1-16.6,20.2s7.4,20.2,16.6,20.2s16.6-9.1,16.6-20.2S177.5,79.1,168.3,79.1z"
			/>
	</g>
	<g>
		<path id="XMLID_1_" class="st0" d="M185.5,107.1c-4.3-4.7-10.1-6.3-15.8-4.3c-8.2,2.9-16.9,0.4-22.8-6.5l4.6-3.9
			c4.2,5,10.4,6.8,16.2,4.7c7.9-2.8,16.4-0.5,22.3,5.9L185.5,107.1z"/>
	</g>
</g>
</svg>
