<?xml version="1.0" encoding="utf-8"?>
<!-- Generator: Adobe Illustrator 19.0.0, SVG Export Plug-In . SVG Version: 6.00 Build 0)  -->
<svg version="1.1" id="图层_1" xmlns="http://www.w3.org/2000/svg" xmlns:xlink="http://www.w3.org/1999/xlink" x="0px" y="0px"
	 viewBox="0 0 200 200" style="enable-background:new 0 0 200 200;" xml:space="preserve">
<style type="text/css">
	.st0{fill:#323232;}
</style>
<g>
	<g>
		<path class="st0" d="M183.9,162.2H16.1C7.2,162.2,0,155,0,146.1V71c0-8.9,7.2-16.1,16.1-16.1h167.9c8.9,0,16.1,7.2,16.1,16.1v75.2
			C200,155,192.8,162.2,183.9,162.2z M16.1,61.3c-5.3,0-9.6,4.3-9.6,9.6v75.2c0,5.3,4.3,9.6,9.6,9.6h167.9c5.3,0,9.6-4.3,9.6-9.6V71
			c0-5.3-4.3-9.6-9.6-9.6H16.1z"/>
	</g>
	<g>
		<path id="XMLID_1_" class="st0" d="M183.9,61.3H16.1C7.1,61.3,0,56.6,0,50.6V45c0-2.3,1.1-4.6,3-6.4c1.3-1.2,3.3-1.1,4.5,0.2
			c1.2,1.3,1.1,3.3-0.2,4.5c-0.4,0.3-1,1-1,1.6v5.6c0,1.7,3.8,4.3,9.6,4.3h167.9c5.8,0,9.6-2.6,9.6-4.3V45c0-0.7-0.7-1.5-1.2-1.8
			c-1.4-1.1-1.6-3.2-0.4-4.5c1.1-1.4,3.1-1.6,4.5-0.4c2.3,1.9,3.5,4.3,3.5,6.8v5.6C200,56.6,192.9,61.3,183.9,61.3z"/>
	</g>
</g>
</svg>
