<?xml version="1.0" encoding="utf-8"?>
<!-- Generator: Adobe Illustrator 19.0.0, SVG Export Plug-In . SVG Version: 6.00 Build 0)  -->
<svg version="1.1" id="图层_1" xmlns="http://www.w3.org/2000/svg" xmlns:xlink="http://www.w3.org/1999/xlink" x="0px" y="0px"
	 viewBox="0 0 200 200" style="enable-background:new 0 0 200 200;" xml:space="preserve">
<style type="text/css">
	.st0{fill:#323232;}
</style>
<g>
	<g>
		<path class="st0" d="M58.6,126.4c-14.6,0-26.4-11.8-26.4-26.4c0-14.6,11.8-26.4,26.4-26.4c14.5,0,26.4,11.8,26.4,26.4
			C84.9,114.6,73.1,126.4,58.6,126.4z M58.6,83.8c-8.9,0-16.2,7.3-16.2,16.2c0,8.9,7.3,16.2,16.2,16.2c8.9,0,16.2-7.3,16.2-16.2
			C74.7,91.1,67.5,83.8,58.6,83.8z"/>
	</g>
	<g>
		<path class="st0" d="M100.4,200c-55.1,0-100-44.9-100-100S45.3,0,100.4,0s100,44.9,100,100S155.5,200,100.4,200z M100.4,10.2
			c-49.5,0-89.8,40.3-89.8,89.8s40.3,89.8,89.8,89.8s89.8-40.3,89.8-89.8S149.9,10.2,100.4,10.2z"/>
	</g>
</g>
</svg>
